<svg height="769.7999954223633" version="1.1" width="383.7919921875" xmlns="http://www.w3.org/2000/svg" xmlns:xlink="http://www.w3.org/1999/xlink" style="overflow: hidden; position: relative;" viewBox="0 0 383.7919921875 769.7999954223633" preserveAspectRatio="xMidYMid meet"><desc style="-webkit-tap-highlight-color: rgba(0, 0, 0, 0);">Created with Raphaël 2.3.0</desc><defs style="-webkit-tap-highlight-color: rgba(0, 0, 0, 0);"><path stroke-linecap="round" d="M5,0 0,2.5 5,5z" id="raphael-marker-block" style="-webkit-tap-highlight-color: rgba(0, 0, 0, 0);"></path><marker id="raphael-marker-endblock33-objil40y" markerHeight="3" markerWidth="3" orient="auto" refX="1.5" refY="1.5" style="-webkit-tap-highlight-color: rgba(0, 0, 0, 0);"><use xlink:href="#raphael-marker-block" transform="rotate(180 1.5 1.5) scale(0.6,0.6)" stroke-width="1.6667" fill="black" stroke="none" style="-webkit-tap-highlight-color: rgba(0, 0, 0, 0);"></use></marker><marker id="raphael-marker-endblock33-objr2idw" markerHeight="3" markerWidth="3" orient="auto" refX="1.5" refY="1.5" style="-webkit-tap-highlight-color: rgba(0, 0, 0, 0);"><use xlink:href="#raphael-marker-block" transform="rotate(180 1.5 1.5) scale(0.6,0.6)" stroke-width="1.6667" fill="black" stroke="none" style="-webkit-tap-highlight-color: rgba(0, 0, 0, 0);"></use></marker><marker id="raphael-marker-endblock33-objxy6c8" markerHeight="3" markerWidth="3" orient="auto" refX="1.5" refY="1.5" style="-webkit-tap-highlight-color: rgba(0, 0, 0, 0);"><use xlink:href="#raphael-marker-block" transform="rotate(180 1.5 1.5) scale(0.6,0.6)" stroke-width="1.6667" fill="black" stroke="none" style="-webkit-tap-highlight-color: rgba(0, 0, 0, 0);"></use></marker><marker id="raphael-marker-endblock33-obj9mrrz" markerHeight="3" markerWidth="3" orient="auto" refX="1.5" refY="1.5" style="-webkit-tap-highlight-color: rgba(0, 0, 0, 0);"><use xlink:href="#raphael-marker-block" transform="rotate(180 1.5 1.5) scale(0.6,0.6)" stroke-width="1.6667" fill="black" stroke="none" style="-webkit-tap-highlight-color: rgba(0, 0, 0, 0);"></use></marker><marker id="raphael-marker-endblock33-objil5op" markerHeight="3" markerWidth="3" orient="auto" refX="1.5" refY="1.5" style="-webkit-tap-highlight-color: rgba(0, 0, 0, 0);"><use xlink:href="#raphael-marker-block" transform="rotate(180 1.5 1.5) scale(0.6,0.6)" stroke-width="1.6667" fill="black" stroke="none" style="-webkit-tap-highlight-color: rgba(0, 0, 0, 0);"></use></marker><marker id="raphael-marker-endblock33-objmm4k4" markerHeight="3" markerWidth="3" orient="auto" refX="1.5" refY="1.5" style="-webkit-tap-highlight-color: rgba(0, 0, 0, 0);"><use xlink:href="#raphael-marker-block" transform="rotate(180 1.5 1.5) scale(0.6,0.6)" stroke-width="1.6667" fill="black" stroke="none" style="-webkit-tap-highlight-color: rgba(0, 0, 0, 0);"></use></marker><marker id="raphael-marker-endblock33-objtyb0j" markerHeight="3" markerWidth="3" orient="auto" refX="1.5" refY="1.5" style="-webkit-tap-highlight-color: rgba(0, 0, 0, 0);"><use xlink:href="#raphael-marker-block" transform="rotate(180 1.5 1.5) scale(0.6,0.6)" stroke-width="1.6667" fill="black" stroke="none" style="-webkit-tap-highlight-color: rgba(0, 0, 0, 0);"></use></marker><marker id="raphael-marker-endblock33-objw8pry" markerHeight="3" markerWidth="3" orient="auto" refX="1.5" refY="1.5" style="-webkit-tap-highlight-color: rgba(0, 0, 0, 0);"><use xlink:href="#raphael-marker-block" transform="rotate(180 1.5 1.5) scale(0.6,0.6)" stroke-width="1.6667" fill="black" stroke="none" style="-webkit-tap-highlight-color: rgba(0, 0, 0, 0);"></use></marker><marker id="raphael-marker-endblock33-objuntio" markerHeight="3" markerWidth="3" orient="auto" refX="1.5" refY="1.5" style="-webkit-tap-highlight-color: rgba(0, 0, 0, 0);"><use xlink:href="#raphael-marker-block" transform="rotate(180 1.5 1.5) scale(0.6,0.6)" stroke-width="1.6667" fill="black" stroke="none" style="-webkit-tap-highlight-color: rgba(0, 0, 0, 0);"></use></marker><marker id="raphael-marker-endblock33-objoewim" markerHeight="3" markerWidth="3" orient="auto" refX="1.5" refY="1.5" style="-webkit-tap-highlight-color: rgba(0, 0, 0, 0);"><use xlink:href="#raphael-marker-block" transform="rotate(180 1.5 1.5) scale(0.6,0.6)" stroke-width="1.6667" fill="black" stroke="none" style="-webkit-tap-highlight-color: rgba(0, 0, 0, 0);"></use></marker></defs><a xlink:href="http://www.google.com" xlink:show="new" style="-webkit-tap-highlight-color: rgba(0, 0, 0, 0);"><rect x="0" y="0" width="50.67578125" height="36" rx="20" ry="20" fill="#ffffff" stroke="#000000" style="-webkit-tap-highlight-color: rgba(0, 0, 0, 0);" stroke-width="3" class="flowchart" id="st" transform="matrix(1,0,0,1,67.4746,27.6)"></rect></a><a xlink:href="http://www.google.com" xlink:show="new" style="-webkit-tap-highlight-color: rgba(0, 0, 0, 0);"><text x="10" y="18" text-anchor="start" font-family="&quot;Arial&quot;" font-size="14px" stroke="none" fill="#000000" style="-webkit-tap-highlight-color: rgba(0, 0, 0, 0); text-anchor: start; font-family: Arial; font-size: 14px;" id="stt" class="flowchartt" transform="matrix(1,0,0,1,67.4746,27.6)" stroke-width="1"><tspan dy="5" style="-webkit-tap-highlight-color: rgba(0, 0, 0, 0);">Start</tspan></text></a><path fill="#ffffff" stroke="#000000" d="M10,18L20,36L98.5927734375,36L118.5927734375,0L0,0L10,18" stroke-width="3" id="getInfo" class="flowchart" style="-webkit-tap-highlight-color: rgba(0, 0, 0, 0);" transform="matrix(1,0,0,1,33.5161,141.2)"></path><text x="30" y="18" text-anchor="start" font-family="&quot;Arial&quot;" font-size="14px" stroke="none" fill="#000000" style="-webkit-tap-highlight-color: rgba(0, 0, 0, 0); text-anchor: start; font-family: Arial; font-size: 14px;" id="getInfot" class="flowchartt" transform="matrix(1,0,0,1,33.5161,141.2)" stroke-width="1"><tspan dy="5" style="-webkit-tap-highlight-color: rgba(0, 0, 0, 0);">Input Info</tspan></text><rect x="0" y="0" width="104.248046875" height="36" rx="0" ry="0" fill="#ffffff" stroke="#000000" style="-webkit-tap-highlight-color: rgba(0, 0, 0, 0);" stroke-width="3" class="flowchart" id="op1" transform="matrix(1,0,0,1,40.6885,254.8)"></rect><text x="10" y="18" text-anchor="start" font-family="&quot;Arial&quot;" font-size="14px" stroke="none" fill="#000000" style="-webkit-tap-highlight-color: rgba(0, 0, 0, 0); text-anchor: start; font-family: Arial; font-size: 14px;" id="op1t" class="flowchartt" transform="matrix(1,0,0,1,40.6885,254.8)" stroke-width="1"><tspan dy="5" style="-webkit-tap-highlight-color: rgba(0, 0, 0, 0);">My Operation</tspan></text><a xlink:href="http://www.google.com" style="-webkit-tap-highlight-color: rgba(0, 0, 0, 0);"><path fill="#ffffff" stroke="#000000" d="M27.462890625,19.799999713897705L0,39.59999942779541L54.92578125,79.19999885559082L109.8515625,39.59999942779541L54.92578125,0L0,39.59999942779541" stroke-width="3" id="cond" class="flowchart" style="-webkit-tap-highlight-color: rgba(0, 0, 0, 0);" transform="matrix(1,0,0,1,37.8867,346.8)"></path></a><a xlink:href="http://www.google.com" style="-webkit-tap-highlight-color: rgba(0, 0, 0, 0);"><text x="32.462890625" y="39.59999942779541" text-anchor="start" font-family="&quot;Arial&quot;" font-size="14px" stroke="none" fill="#000000" style="-webkit-tap-highlight-color: rgba(0, 0, 0, 0); text-anchor: start; font-family: Arial; font-size: 14px;" id="condt" class="flowchartt" transform="matrix(1,0,0,1,37.8867,346.8)" stroke-width="1"><tspan dy="-3.399998664855957" style="-webkit-tap-highlight-color: rgba(0, 0, 0, 0);">Yes</tspan><tspan dy="16.8" x="32.462890625" style="-webkit-tap-highlight-color: rgba(0, 0, 0, 0);">or No?</tspan></text></a><path fill="#ffffff" stroke="#000000" d="M10,18L0,36L153.625,36L173.625,0L20,0L10,18" stroke-width="3" id="io" class="flowchart" style="-webkit-tap-highlight-color: rgba(0, 0, 0, 0);" transform="matrix(1,0,0,1,6,503.6)"></path><text x="30" y="18" text-anchor="start" font-family="&quot;Arial&quot;" font-size="14px" stroke="none" fill="#000000" style="-webkit-tap-highlight-color: rgba(0, 0, 0, 0); text-anchor: start; font-family: Arial; font-size: 14px;" id="iot" class="flowchartt" transform="matrix(1,0,0,1,6,503.6)" stroke-width="1"><tspan dy="5" style="-webkit-tap-highlight-color: rgba(0, 0, 0, 0);">catch something...</tspan></text><path fill="#ffffff" stroke="#000000" d="M10,18L0,36L115.4619140625,36L95.4619140625,0L20,0L10,18" stroke-width="3" id="printInfo" class="flowchart" style="-webkit-tap-highlight-color: rgba(0, 0, 0, 0);" transform="matrix(1,0,0,1,35.0815,617.2)"></path><text x="30" y="18" text-anchor="start" font-family="&quot;Arial&quot;" font-size="14px" stroke="none" fill="#000000" style="-webkit-tap-highlight-color: rgba(0, 0, 0, 0); text-anchor: start; font-family: Arial; font-size: 14px;" id="printInfot" class="flowchartt" transform="matrix(1,0,0,1,35.0815,617.2)" stroke-width="1"><tspan dy="5" style="-webkit-tap-highlight-color: rgba(0, 0, 0, 0);">Print info</tspan></text><a xlink:href="http://www.google.com" style="-webkit-tap-highlight-color: rgba(0, 0, 0, 0);"><rect x="0" y="0" width="45.1240234375" height="36" rx="20" ry="20" fill="#ffffff" stroke="#000000" style="-webkit-tap-highlight-color: rgba(0, 0, 0, 0);" stroke-width="3" class="flowchart" id="e" transform="matrix(1,0,0,1,70.2505,730.8)"></rect></a><a xlink:href="http://www.google.com" style="-webkit-tap-highlight-color: rgba(0, 0, 0, 0);"><text x="10" y="18" text-anchor="start" font-family="&quot;Arial&quot;" font-size="14px" stroke="none" fill="#000000" style="-webkit-tap-highlight-color: rgba(0, 0, 0, 0); text-anchor: start; font-family: Arial; font-size: 14px;" id="et" class="flowchartt" transform="matrix(1,0,0,1,70.2505,730.8)" stroke-width="1"><tspan dy="5" style="-webkit-tap-highlight-color: rgba(0, 0, 0, 0);">End</tspan></text></a><rect x="0" y="0" width="101.703125" height="36" rx="0" ry="0" fill="#ffffff" stroke="#000000" style="-webkit-tap-highlight-color: rgba(0, 0, 0, 0);" stroke-width="3" class="flowchart" id="para" transform="matrix(1,0,0,1,239.6992,368.4)"></rect><text x="10" y="18" text-anchor="start" font-family="&quot;Arial&quot;" font-size="14px" stroke="none" fill="#000000" style="-webkit-tap-highlight-color: rgba(0, 0, 0, 0); text-anchor: start; font-family: Arial; font-size: 14px;" id="parat" class="flowchartt" transform="matrix(1,0,0,1,239.6992,368.4)" stroke-width="1"><tspan dy="5" style="-webkit-tap-highlight-color: rgba(0, 0, 0, 0);">parallel tasks</tspan></text><rect x="0" y="0" width="130.482421875" height="36" rx="0" ry="0" fill="#ffffff" stroke="#000000" style="-webkit-tap-highlight-color: rgba(0, 0, 0, 0);" stroke-width="3" class="flowchart" id="sub1" transform="matrix(1,0,0,1,225.3096,482)"></rect><rect x="10" y="0" width="110.482421875" height="36" rx="0" ry="0" fill="#ffffff" stroke="#000000" style="-webkit-tap-highlight-color: rgba(0, 0, 0, 0);" stroke-width="3" id="sub1i" transform="matrix(1,0,0,1,225.3096,482)"></rect><text x="20" y="18" text-anchor="start" font-family="&quot;Arial&quot;" font-size="14px" stroke="none" fill="#000000" style="-webkit-tap-highlight-color: rgba(0, 0, 0, 0); text-anchor: start; font-family: Arial; font-size: 14px;" id="sub1t" class="flowchartt" transform="matrix(1,0,0,1,225.3096,482)" stroke-width="1"><tspan dy="5" style="-webkit-tap-highlight-color: rgba(0, 0, 0, 0);">My Subroutine</tspan></text><path fill="none" stroke="#000000" d="M92.8125,63.59999942779541C92.8125,63.59999942779541,92.8125,120.13073936739602,92.8125,136.6924795840759" stroke-width="3" marker-end="url(#raphael-marker-endblock33-objil40y)" style="-webkit-tap-highlight-color: rgba(0, 0, 0, 0);"></path><path fill="none" stroke="#000000" d="M92.8125,177.19999885559082C92.8125,177.19999885559082,92.8125,233.73073879519143,92.8125,250.2924790118713" stroke-width="3" marker-end="url(#raphael-marker-endblock33-objr2idw)" style="-webkit-tap-highlight-color: rgba(0, 0, 0, 0);"></path><path fill="none" stroke="#000000" d="M92.8125,290.79999828338623C92.8125,290.79999828338623,92.8125,329.0007691383362,92.8125,342.3001586010214" stroke-width="3" marker-end="url(#raphael-marker-endblock33-objxy6c8)" style="-webkit-tap-highlight-color: rgba(0, 0, 0, 0);"></path><path fill="none" stroke="#000000" d="M92.8125,425.99999713897705C92.8125,425.99999713897705,92.8125,482.53073707857766,92.8125,499.09247729525754" stroke-width="3" marker-end="url(#raphael-marker-endblock33-obj9mrrz)" style="-webkit-tap-highlight-color: rgba(0, 0, 0, 0);"></path><text x="97.8125" y="435.99999713897705" text-anchor="start" font-family="&quot;Arial&quot;" font-size="14px" stroke="none" fill="#000000" style="-webkit-tap-highlight-color: rgba(0, 0, 0, 0); text-anchor: start; font-family: Arial; font-size: 14px;" stroke-width="1"><tspan dy="4.999997138977051" style="-webkit-tap-highlight-color: rgba(0, 0, 0, 0);">yes</tspan></text><path fill="none" stroke="#000000" d="M147.73828125,386.39999771118164C147.73828125,386.39999771118164,216.73853953927755,386.39999771118164,235.20149927683815,386.39999771118164" stroke-width="3" marker-end="url(#raphael-marker-endblock33-objil5op)" style="-webkit-tap-highlight-color: rgba(0, 0, 0, 0);"></path><text x="152.73828125" y="376.39999771118164" text-anchor="start" font-family="&quot;Arial&quot;" font-size="14px" stroke="none" fill="#000000" style="-webkit-tap-highlight-color: rgba(0, 0, 0, 0); text-anchor: start; font-family: Arial; font-size: 14px;" stroke-width="1"><tspan dy="5.000003814697266" style="-webkit-tap-highlight-color: rgba(0, 0, 0, 0);">no</tspan></text><path fill="none" stroke="#000000" d="M92.8125,539.5999965667725C92.8125,539.5999965667725,92.8125,596.1307365063731,92.8125,612.6924767230529" stroke-width="3" marker-end="url(#raphael-marker-endblock33-objmm4k4)" style="-webkit-tap-highlight-color: rgba(0, 0, 0, 0);"></path><path fill="none" stroke="#000000" d="M92.8125,653.1999959945679C92.8125,653.1999959945679,92.8125,709.7307359341685,92.8125,726.2924761508484" stroke-width="3" marker-end="url(#raphael-marker-endblock33-objtyb0j)" style="-webkit-tap-highlight-color: rgba(0, 0, 0, 0);"></path><path fill="none" stroke="#000000" d="M290.55078125,404.39999771118164C290.55078125,404.39999771118164,290.55078125,460.93073765078225,290.55078125,477.49247786746207" stroke-width="3" marker-end="url(#raphael-marker-endblock33-objw8pry)" style="-webkit-tap-highlight-color: rgba(0, 0, 0, 0);"></path><path fill="none" stroke="#000000" d="M290.55078125,368.39999771118164C290.55078125,368.39999771118164,290.55078125,219.79999828338623,290.55078125,219.79999828338623C290.55078125,219.79999828338623,92.8125,219.79999828338623,92.8125,219.79999828338623C92.8125,219.79999828338623,92.8125,240.8430700302124,92.8125,250.29601241648197" stroke-width="3" marker-end="url(#raphael-marker-endblock33-objuntio)" style="-webkit-tap-highlight-color: rgba(0, 0, 0, 0);"></path><path fill="none" stroke="#000000" d="M355.7919921875,499.99999713897705C355.7919921875,499.99999713897705,380.7919921875,499.99999713897705,380.7919921875,499.99999713897705C380.7919921875,499.99999713897705,380.7919921875,209.79999828338623,380.7919921875,209.79999828338623C380.7919921875,209.79999828338623,92.8125,209.79999828338623,92.8125,209.79999828338623C92.8125,209.79999828338623,92.8125,238.9031355381012,92.8125,250.29996956069954" stroke-width="3" marker-end="url(#raphael-marker-endblock33-objoewim)" style="-webkit-tap-highlight-color: rgba(0, 0, 0, 0);"></path></svg>