<svg style="overflow: hidden; position: relative; top: -0.390625px;" height="256.07199014205946" version="1.1" width="472.13181750583624" xmlns="http://www.w3.org/2000/svg"><desc style="-webkit-tap-highlight-color: rgba(0, 0, 0, 0);">Created with Raphaël 2.1.0</desc><defs style="-webkit-tap-highlight-color: rgba(0, 0, 0, 0);"><path style="-webkit-tap-highlight-color: rgba(0, 0, 0, 0);" stroke-linecap="round" d="M5,0 0,2.5 5,5z" id="raphael-marker-block"></path><marker style="-webkit-tap-highlight-color: rgba(0, 0, 0, 0);" id="raphael-marker-endblock55" markerHeight="5" markerWidth="5" orient="auto" refX="2.5" refY="2.5"><use style="-webkit-tap-highlight-color: rgba(0, 0, 0, 0);" href="#raphael-marker-block" transform="rotate(180 2.5 2.5) scale(1,1)" stroke-width="1.0000" fill="#000" stroke="none"></use></marker></defs><path style="-webkit-tap-highlight-color: rgba(0, 0, 0, 0);" fill="#ffffff" stroke="#000000" d="M10,20C44.444767674844506,22.289892708509228,66.95273901776395,17.710107291490772,67.24731771273072,20C65.88819854337291,34.04629589445829,68.60643688208853,48.507021727015584,67.24731771273072,53.97797923394532C20.55663603612865,51.68808652543609,42.98579594465853,56.26787194245455,10,53.97797923394532C11.359119169357813,50.72906862067684,8.640880830642187,49.393559383519616,10,20" stroke-width="2"></path><path style="-webkit-tap-highlight-color: rgba(0, 0, 0, 0);" fill="#000000" stroke="none" d="M18.40165777777778,36.17047850586156C17.379435555555556,35.72603406141712,16.668324444444448,37.85936739475045,16.09054666666667,38.83714517252823C15.734991111111112,39.1038118391949,15.734991111111112,39.1038118391949,15.11276888888889,39.63714517252823C14.134991111111113,39.32603406141712,14.090546666666668,37.99270072808378,14.934991111111113,37.45936739475045C15.246102222222223,37.1038118391949,15.423880000000002,36.79270072808379,15.60165777777778,36.437145172528226C15.60165777777778,36.437145172528226,15.557213333333335,36.48158961697267,15.557213333333335,36.48158961697267C14.934991111111113,35.32603406141712,16.579435555555555,35.192700728083786,16.934991111111113,34.7038118391949C16.979435555555558,34.65936739475045,17.60165777777778,33.41492295030601,18.09054666666667,33.1038118391949C18.846102222222225,31.726034061417117,19.823880000000003,30.526034061417114,20.490546666666667,29.014922950306005C21.20165777777778,28.126034061417116,21.379435555555556,26.74825628363934,22.31276888888889,26.08158961697267C23.60165777777778,26.303811839194893,23.823880000000003,28.837145172528228,24.31276888888889,30.17047850586156C24.71276888888889,33.01492295030601,25.246102222222227,34.748256283639336,26.490546666666667,37.05936739475045C26.357213333333334,38.17047850586156,24.53499111111111,37.54825628363934,24.09054666666667,37.05936739475045C22.579435555555555,36.526034061417114,19.77943555555556,35.77047850586156,18.40165777777778,36.17047850586156C18.40165777777778,36.17047850586156,18.40165777777778,36.17047850586156,18.40165777777778,36.17047850586156M18.846102222222225,34.526034061417114C19.734991111111114,34.79270072808379,22.40165777777778,34.970478505861564,23.77943555555556,35.281589616972674C24.046102222222224,34.970478505861564,23.60165777777778,34.614922950306,23.46832444444445,34.214922950306004C22.979435555555558,32.970478505861564,23.068324444444446,30.126034061417116,22.134991111111113,29.014922950306005C21.734991111111114,29.414922950306007,21.290546666666668,30.97047850586156,20.62388,31.45936739475045C20.22388,32.48158961697267,19.423880000000004,33.23714517252823,18.846102222222225,34.526034061417114C18.846102222222225,34.526034061417114,18.846102222222225,34.526034061417114,18.846102222222225,34.526034061417114M30.090546666666665,26.437145172528226C31.02388,26.17047850586156,31.73499111111111,27.45936739475045,31.423879999999997,28.881589616972672C30.979435555555554,31.14825628363934,30.179435555555553,34.881589616972676,30.179435555555553,38.126034061417116C30.179435555555553,38.614922950306,30.44610222222222,39.72603406141712,29.601657777777774,39.77047850586156C28.312768888888886,39.54825628363934,28.268324444444442,37.63714517252823,28.490546666666663,36.08158961697267C28.490546666666663,36.08158961697267,29.73499111111111,28.214922950306004,29.73499111111111,28.214922950306004C29.46832444444444,27.45936739475045,29.779435555555555,26.926034061417116,30.090546666666665,26.437145172528226C30.090546666666665,26.437145172528226,30.090546666666665,26.437145172528226,30.090546666666665,26.437145172528226M34.44610222222223,30.48158961697267C34.75721333333335,31.281589616972674,34.846102222222235,31.503811839194896,34.22388000000001,32.17047850586156C33.20165777777779,31.903811839194894,33.29054666666668,31.370478505861563,33.73499111111112,30.57047850586156C33.82388000000001,30.57047850586156,34.090546666666675,30.526034061417114,34.44610222222223,30.48158961697267C34.44610222222223,30.48158961697267,34.44610222222223,30.48158961697267,34.44610222222223,30.48158961697267M33.20165777777779,39.45936739475045C32.401657777777785,38.526034061417114,32.846102222222235,36.214922950306004,33.157213333333345,34.748256283639336C33.468324444444455,34.30381183919489,34.04610222222223,34.39270072808378,34.179435555555564,35.01492295030601C34.13499111111112,36.614922950306,34.490546666666674,38.214922950306004,34.090546666666675,39.63714517252823C33.73499111111112,39.72603406141712,33.73499111111112,39.63714517252823,33.20165777777779,39.45936739475045C33.20165777777779,39.45936739475045,33.20165777777779,39.45936739475045,33.20165777777779,39.45936739475045M40.93499111111111,34.30381183919489C42.223879999999994,33.99270072808378,42.579435555555555,35.592700728083784,41.46832444444444,35.77047850586156C40.268324444444445,35.592700728083784,39.69054666666666,36.03714517252823,37.95721333333333,36.881589616972676C37.601657777777774,37.05936739475045,37.37943555555555,37.37047850586156,37.24610222222222,37.85936739475045C38.579435555555555,39.281589616972674,41.290546666666664,37.99270072808378,43.201657777777775,38.34825628363934C43.42388,38.92603406141712,42.84610222222222,39.503811839194896,42.223879999999994,39.192700728083786C39.95721333333333,40.30381183919489,36.04610222222222,40.437145172528226,35.55721333333333,37.85936739475045C35.823879999999996,35.63714517252823,38.62388,34.214922950306004,40.93499111111111,34.30381183919489C40.93499111111111,34.30381183919489,40.93499111111111,34.30381183919489,40.93499111111111,34.30381183919489M44.046102222222224,37.23714517252823C44.046102222222224,34.65936739475045,46.31276888888889,34.08158961697267,48.93499111111112,33.94825628363934C50.40165777777778,33.903811839194894,50.93499111111112,34.65936739475045,51.55721333333334,35.503811839194896C51.60165777777778,36.126034061417116,51.646102222222225,37.23714517252823,51.24610222222223,37.37047850586156C50.17943555555556,37.281589616972674,48.00165777777778,37.94825628363934,46.84610222222223,37.85936739475045C46.75721333333333,37.94825628363934,46.75721333333333,37.99270072808378,46.75721333333333,37.99270072808378C46.75721333333333,38.126034061417116,47.29054666666667,38.34825628363934,48.40165777777778,38.65936739475045C49.334991111111115,38.65936739475045,51.46832444444445,39.05936739475045,49.77943555555556,39.63714517252823C49.37943555555556,40.25936739475045,48.268324444444445,39.903811839194894,47.29054666666667,39.903811839194894C46.09054666666667,39.68158961697267,44.046102222222224,38.65936739475045,44.046102222222224,37.23714517252823C44.046102222222224,37.23714517252823,44.046102222222224,37.23714517252823,44.046102222222224,37.23714517252823M49.334991111111115,35.23714517252823C48.357213333333334,35.32603406141712,46.31276888888889,35.45936739475045,46.44610222222222,36.39270072808378C47.51276888888889,36.30381183919489,49.37943555555556,36.614922950306,49.957213333333335,36.126034061417116C49.734991111111114,35.54825628363934,49.91276888888889,35.54825628363934,49.334991111111115,35.23714517252823C49.334991111111115,35.23714517252823,49.334991111111115,35.23714517252823,49.334991111111115,35.23714517252823"></path><path style="-webkit-tap-highlight-color: rgba(0, 0, 0, 0);" fill="#ffffff" stroke="#000000" d="M10,202.09401090811414C23.68333734212433,199.80411819960491,50.80365147882238,204.38390361662337,67.24731771273072,202.09401090811414C68.60643688208853,211.78790738976386,65.88819854337291,223.6917607659394,67.24731771273072,236.07199014205946C48.22210193671239,233.78209743355023,24.11364223484665,238.3618828505687,10,236.07199014205946C11.359119169357813,213.03020833401712,8.640880830642187,209.17104312795456,10,202.09401090811414" stroke-width="2"></path><path style="-webkit-tap-highlight-color: rgba(0, 0, 0, 0);" fill="#000000" stroke="none" d="M18.40165777777778,218.26448941397567C17.379435555555556,217.8200449695312,16.668324444444448,219.95337830286456,16.09054666666667,220.93115608064232C15.734991111111112,221.197822747309,15.734991111111112,221.197822747309,15.11276888888889,221.73115608064234C14.134991111111113,221.4200449695312,14.090546666666668,220.0867116361979,14.934991111111113,219.55337830286456C15.246102222222223,219.197822747309,15.423880000000002,218.88671163619787,15.60165777777778,218.53115608064232C15.60165777777778,218.53115608064232,15.557213333333335,218.57560052508677,15.557213333333335,218.57560052508677C14.934991111111113,217.4200449695312,16.579435555555555,217.28671163619788,16.934991111111113,216.797822747309C16.979435555555558,216.75337830286455,17.60165777777778,215.5089338584201,18.09054666666667,215.197822747309C18.846102222222225,213.8200449695312,19.823880000000003,212.62004496953122,20.490546666666667,211.1089338584201C21.20165777777778,210.22004496953122,21.379435555555556,208.84226719175345,22.31276888888889,208.17560052508676C23.60165777777778,208.397822747309,23.823880000000003,210.93115608064232,24.31276888888889,212.26448941397567C24.71276888888889,215.1089338584201,25.246102222222227,216.84226719175345,26.490546666666667,219.15337830286455C26.357213333333334,220.26448941397567,24.53499111111111,219.64226719175343,24.09054666666667,219.15337830286455C22.579435555555555,218.62004496953122,19.77943555555556,217.86448941397566,18.40165777777778,218.26448941397567C18.40165777777778,218.26448941397567,18.40165777777778,218.26448941397567,18.40165777777778,218.26448941397567M18.846102222222225,216.62004496953122C19.734991111111114,216.88671163619787,22.40165777777778,217.06448941397565,23.77943555555556,217.37560052508678C24.046102222222224,217.06448941397565,23.60165777777778,216.7089338584201,23.46832444444445,216.30893385842012C22.979435555555558,215.06448941397565,23.068324444444446,212.22004496953122,22.134991111111113,211.1089338584201C21.734991111111114,211.5089338584201,21.290546666666668,213.06448941397565,20.62388,213.55337830286456C20.22388,214.57560052508677,19.423880000000004,215.33115608064233,18.846102222222225,216.62004496953122C18.846102222222225,216.62004496953122,18.846102222222225,216.62004496953122,18.846102222222225,216.62004496953122M30.090546666666665,208.53115608064232C31.02388,208.26448941397567,31.73499111111111,209.55337830286456,31.423879999999997,210.97560052508678C30.979435555555554,213.24226719175343,30.179435555555553,216.97560052508678,30.179435555555553,220.22004496953122C30.179435555555553,220.7089338584201,30.44610222222222,221.8200449695312,29.601657777777774,221.86448941397566C28.312768888888886,221.64226719175343,28.268324444444442,219.73115608064234,28.490546666666663,218.17560052508676C28.490546666666663,218.17560052508676,29.73499111111111,210.30893385842012,29.73499111111111,210.30893385842012C29.46832444444444,209.55337830286456,29.779435555555555,209.02004496953123,30.090546666666665,208.53115608064232C30.090546666666665,208.53115608064232,30.090546666666665,208.53115608064232,30.090546666666665,208.53115608064232M34.44610222222223,212.57560052508677C34.75721333333335,213.37560052508678,34.846102222222235,213.59782274730898,34.22388000000001,214.26448941397567C33.20165777777779,213.997822747309,33.29054666666668,213.46448941397566,33.73499111111112,212.66448941397567C33.82388000000001,212.66448941397567,34.090546666666675,212.62004496953122,34.44610222222223,212.57560052508677C34.44610222222223,212.57560052508677,34.44610222222223,212.57560052508677,34.44610222222223,212.57560052508677M33.20165777777779,221.55337830286456C32.401657777777785,220.62004496953122,32.846102222222235,218.30893385842012,33.157213333333345,216.84226719175345C33.468324444444455,216.397822747309,34.04610222222223,216.4867116361979,34.179435555555564,217.1089338584201C34.13499111111112,218.7089338584201,34.490546666666674,220.30893385842012,34.090546666666675,221.73115608064234C33.73499111111112,221.8200449695312,33.73499111111112,221.73115608064234,33.20165777777779,221.55337830286456C33.20165777777779,221.55337830286456,33.20165777777779,221.55337830286456,33.20165777777779,221.55337830286456M40.93499111111111,216.397822747309C42.223879999999994,216.0867116361979,42.579435555555555,217.68671163619788,41.46832444444444,217.86448941397566C40.268324444444445,217.68671163619788,39.69054666666666,218.13115608064234,37.95721333333333,218.97560052508678C37.601657777777774,219.15337830286455,37.37943555555555,219.46448941397566,37.24610222222222,219.95337830286456C38.579435555555555,221.37560052508678,41.290546666666664,220.0867116361979,43.201657777777775,220.44226719175344C43.42388,221.02004496953123,42.84610222222222,221.59782274730898,42.223879999999994,221.28671163619788C39.95721333333333,222.397822747309,36.04610222222222,222.53115608064232,35.55721333333333,219.95337830286456C35.823879999999996,217.73115608064234,38.62388,216.30893385842012,40.93499111111111,216.397822747309C40.93499111111111,216.397822747309,40.93499111111111,216.397822747309,40.93499111111111,216.397822747309M44.046102222222224,219.33115608064233C44.046102222222224,216.75337830286455,46.31276888888889,216.17560052508676,48.93499111111112,216.04226719175344C50.40165777777778,215.997822747309,50.93499111111112,216.75337830286455,51.55721333333334,217.59782274730898C51.60165777777778,218.22004496953122,51.646102222222225,219.33115608064233,51.24610222222223,219.46448941397566C50.17943555555556,219.37560052508678,48.00165777777778,220.04226719175344,46.84610222222223,219.95337830286456C46.75721333333333,220.04226719175344,46.75721333333333,220.0867116361979,46.75721333333333,220.0867116361979C46.75721333333333,220.22004496953122,47.29054666666667,220.44226719175344,48.40165777777778,220.75337830286455C49.334991111111115,220.75337830286455,51.46832444444445,221.15337830286455,49.77943555555556,221.73115608064234C49.37943555555556,222.35337830286454,48.268324444444445,221.997822747309,47.29054666666667,221.997822747309C46.09054666666667,221.77560052508676,44.046102222222224,220.75337830286455,44.046102222222224,219.33115608064233C44.046102222222224,219.33115608064233,44.046102222222224,219.33115608064233,44.046102222222224,219.33115608064233M49.334991111111115,217.33115608064233C48.357213333333334,217.4200449695312,46.31276888888889,217.55337830286456,46.44610222222222,218.4867116361979C47.51276888888889,218.397822747309,49.37943555555556,218.7089338584201,49.957213333333335,218.22004496953122C49.734991111111114,217.64226719175343,49.91276888888889,217.64226719175343,49.334991111111115,217.33115608064233C49.334991111111115,217.33115608064233,49.334991111111115,217.33115608064233,49.334991111111115,217.33115608064233"></path><path style="-webkit-tap-highlight-color: rgba(0, 0, 0, 0);" fill="none" stroke="#000000" d="M38.62365885636536,53.97797923394532C32.69901758939861,68.94431476771832,44.54830012333211,133.37307823455453,38.62365885636536,202.09401090811414" stroke-width="2"></path><path style="-webkit-tap-highlight-color: rgba(0, 0, 0, 0);" fill="#ffffff" stroke="#000000" d="M243.53971867312484,20C271.72133114046164,17.79335913800065,274.0836808121285,22.20664086199935,298.7057402231086,20C300.0648593924664,39.71750922842511,297.34662105375077,37.594507582637846,298.7057402231086,53.97797923394532C261.59870413522424,56.184620095944666,255.05818896273246,51.77133837194597,243.53971867312484,53.97797923394532C242.180599503767,46.80116358549077,244.89883784248266,35.839253898634006,243.53971867312484,20" stroke-width="2"></path><path style="-webkit-tap-highlight-color: rgba(0, 0, 0, 0);" fill="#000000" stroke="none" d="M259.0080431175693,31.814922950306006C260.8302653397915,32.25936739475045,264.1191542286804,33.32603406141712,263.0524875620137,35.85936739475045C262.78582089534706,35.99270072808378,262.4302653397915,36.39270072808378,262.2080431175693,36.748256283639336C260.56359867312483,37.592700728083784,259.98582089534705,38.25936739475045,259.40804311756926,37.85936739475045C259.0080431175693,38.30381183919489,258.87470978423596,38.34825628363934,257.89693200645814,38.437145172528226C257.89693200645814,38.437145172528226,258.03026533979147,38.30381183919489,258.03026533979147,38.30381183919489C257.8524875620137,38.126034061417116,257.49693200645817,38.126034061417116,257.2302653397915,38.30381183919489C257.2302653397915,38.30381183919489,257.31915422868036,38.39270072808378,257.45248756201374,38.48158961697267C256.5191542286804,39.1038118391949,256.2969320064582,38.748256283639336,255.49693200645817,39.14825628363934C255.3191542286804,39.14825628363934,255.18582089534704,39.05936739475045,255.1413764509026,38.92603406141712C254.87470978423593,39.41492295030601,254.25248756201373,38.70381183919489,254.3413764509026,39.41492295030601C252.7413764509026,39.592700728083784,250.29693200645815,40.970478505861564,249.27470978423594,39.592700728083784C248.96359867312484,36.837145172528224,248.83026533979148,33.45936739475045,249.45248756201372,30.74825628363934C249.40804311756926,29.903811839194894,247.80804311756927,30.837145172528228,247.80804311756927,29.54825628363934C247.80804311756927,29.192700728083786,247.89693200645817,28.97047850586156,248.07470978423595,28.881589616972672C251.09693200645816,27.503811839194896,258.3413764509026,24.792700728083783,261.89693200645814,27.148256283639338C262.2524875620137,27.681589616972673,262.4302653397915,28.037145172528227,262.4302653397915,28.25936739475045C262.07470978423595,30.126034061417116,261.0080431175693,30.437145172528226,259.0080431175693,31.814922950306006C259.0080431175693,31.814922950306006,259.0080431175693,31.814922950306006,259.0080431175693,31.814922950306006M251.1413764509026,32.65936739475045C254.3413764509026,31.903811839194894,257.1413764509026,30.926034061417116,259.31915422868036,29.54825628363934C260.2080431175693,28.97047850586156,260.69693200645816,28.526034061417114,260.69693200645816,28.348256283639337C260.7413764509026,28.08158961697267,259.36359867312484,27.77047850586156,259.0080431175693,27.814922950306006C256.60804311756925,27.814922950306006,253.85248756201372,28.39270072808378,250.7413764509026,29.63714517252823C251.2302653397915,30.57047850586156,250.78582089534706,31.77047850586156,251.1413764509026,32.65936739475045C251.1413764509026,32.65936739475045,251.1413764509026,32.65936739475045,251.1413764509026,32.65936739475045M259.27470978423594,37.85936739475045C259.27470978423594,37.68158961697267,259.40804311756926,37.592700728083784,259.09693200645813,37.63714517252823C259.09693200645813,37.68158961697267,259.1413764509026,37.72603406141712,259.27470978423594,37.85936739475045C259.27470978423594,37.85936739475045,259.27470978423594,37.85936739475045,259.27470978423594,37.85936739475045M257.0080431175693,33.54825628363934C255.49693200645817,33.85936739475045,252.83026533979148,34.614922950306,250.83026533979148,34.214922950306004C250.56359867312483,35.1038118391949,250.6524875620137,36.70381183919489,250.6524875620137,37.85936739475045C250.6524875620137,39.14825628363934,252.56359867312483,37.903811839194894,253.1413764509026,37.94825628363934C255.27470978423594,37.45936739475045,257.9413764509026,36.837145172528224,259.98582089534705,35.814922950306006C260.87470978423596,35.37047850586156,261.40804311756926,35.05936739475045,261.40804311756926,34.7038118391949C261.40804311756926,33.903811839194894,259.9413764509026,33.54825628363934,257.0080431175693,33.54825628363934C257.0080431175693,33.54825628363934,257.0080431175693,33.54825628363934,257.0080431175693,33.54825628363934M256.2969320064582,38.881589616972676C256.56359867312483,38.92603406141712,256.56359867312483,38.79270072808379,256.5191542286804,38.57047850586156C256.385820895347,38.65936739475045,256.2080431175693,38.65936739475045,256.2969320064582,38.881589616972676C256.2969320064582,38.881589616972676,256.2969320064582,38.881589616972676,256.2969320064582,38.881589616972676M268.60804311756925,33.592700728083784C270.9191542286803,32.526034061417114,273.23026533979146,34.39270072808378,273.23026533979146,36.39270072808378C273.23026533979146,39.01492295030601,270.2969320064581,39.37047850586156,268.1635986731248,40.08158961697267C265.85248756201366,39.99270072808378,263.0524875620137,37.85936739475045,264.60804311756925,35.41492295030601C265.63026533979144,34.614922950306,266.9191542286803,33.85936739475045,268.60804311756925,33.592700728083784C268.60804311756925,33.592700728083784,268.60804311756925,33.592700728083784,268.60804311756925,33.592700728083784M265.80804311756924,37.1038118391949C266.51915422868035,39.503811839194896,271.3635986731248,37.814922950306006,271.63026533979144,36.08158961697267C271.09693200645813,33.45936739475045,265.89693200645814,35.72603406141712,265.80804311756924,37.1038118391949C265.80804311756924,37.1038118391949,265.80804311756924,37.1038118391949,265.80804311756924,37.1038118391949M277.0080431175693,33.54825628363934C280.07470978423595,33.592700728083784,282.474709784236,33.54825628363934,282.96359867312486,35.85936739475045C283.1858208953471,37.01492295030601,279.8080431175693,39.01492295030601,278.65248756201373,38.970478505861564C278.16359867312485,39.45936739475045,274.74137645090264,39.94825628363934,274.474709784236,39.94825628363934C273.9858208953471,39.814922950306006,273.3191542286804,39.14825628363934,274.2080431175693,38.881589616972676C275.05248756201377,38.65936739475045,274.11915422868043,38.03714517252823,274.16359867312485,37.32603406141712C274.2080431175693,36.526034061417114,274.65248756201373,35.72603406141712,273.9413764509026,35.23714517252823C273.674709784236,34.48158961697267,273.674709784236,34.30381183919489,274.56359867312483,33.814922950306006C274.83026533979154,31.814922950306006,275.36359867312484,29.85936739475045,275.8080431175693,28.303811839194893C275.8969320064582,27.992700728083783,276.16359867312485,27.77047850586156,276.56359867312483,27.63714517252823C276.78582089534706,27.77047850586156,277.0080431175693,28.126034061417116,277.27470978423594,28.881589616972672C276.74137645090264,30.08158961697267,276.6969320064582,31.681589616972673,276.25248756201375,33.14825628363934C276.25248756201375,33.41492295030601,276.5191542286804,33.54825628363934,277.0080431175693,33.54825628363934C277.0080431175693,33.54825628363934,277.0080431175693,33.54825628363934,277.0080431175693,33.54825628363934M277.3191542286804,35.01492295030601C275.54137645090265,34.614922950306,275.9413764509026,36.39270072808378,275.58582089534707,37.41492295030601C275.9413764509026,38.08158961697267,275.58582089534707,38.526034061417114,276.11915422868043,38.39270072808378C277.45248756201374,38.03714517252823,278.78582089534706,37.592700728083784,280.0302653397915,36.970478505861564C281.7635986731249,36.17047850586156,282.2080431175693,35.503811839194896,279.9858208953471,35.1038118391949C279.0969320064582,34.92603406141711,277.9858208953471,34.79270072808379,277.3191542286804,35.01492295030601C277.3191542286804,35.01492295030601,277.3191542286804,35.01492295030601,277.3191542286804,35.01492295030601"></path><path style="-webkit-tap-highlight-color: rgba(0, 0, 0, 0);" fill="#ffffff" stroke="#000000" d="M243.53971867312484,202.09401090811414C264.7387666203874,199.8873700461148,280.4848138234794,204.3006517701135,298.7057402231086,202.09401090811414C300.0648593924664,202.2167449803568,297.34662105375077,212.09002597244387,298.7057402231086,236.07199014205946C265.33543000519086,238.2786310040588,297.70225373417196,233.86534928006012,243.53971867312484,236.07199014205946C242.180599503767,213.74455094961445,244.89883784248266,211.4019042667221,243.53971867312484,202.09401090811414" stroke-width="2"></path><path style="-webkit-tap-highlight-color: rgba(0, 0, 0, 0);" fill="#000000" stroke="none" d="M259.0080431175693,213.9089338584201C260.8302653397915,214.35337830286454,264.1191542286804,215.4200449695312,263.0524875620137,217.95337830286456C262.78582089534706,218.0867116361979,262.4302653397915,218.4867116361979,262.2080431175693,218.84226719175345C260.56359867312483,219.68671163619788,259.98582089534705,220.35337830286454,259.40804311756926,219.95337830286456C259.0080431175693,220.397822747309,258.87470978423596,220.44226719175344,257.89693200645814,220.53115608064232C257.89693200645814,220.53115608064232,258.03026533979147,220.397822747309,258.03026533979147,220.397822747309C257.8524875620137,220.22004496953122,257.49693200645817,220.22004496953122,257.2302653397915,220.397822747309C257.2302653397915,220.397822747309,257.31915422868036,220.4867116361979,257.45248756201374,220.57560052508677C256.5191542286804,221.197822747309,256.2969320064582,220.84226719175345,255.49693200645817,221.24226719175343C255.3191542286804,221.24226719175343,255.18582089534704,221.15337830286455,255.1413764509026,221.02004496953123C254.87470978423593,221.5089338584201,254.25248756201373,220.797822747309,254.3413764509026,221.5089338584201C252.7413764509026,221.68671163619788,250.29693200645815,223.06448941397565,249.27470978423594,221.68671163619788C248.96359867312484,218.93115608064232,248.83026533979148,215.55337830286456,249.45248756201372,212.84226719175345C249.40804311756926,211.997822747309,247.80804311756927,212.93115608064232,247.80804311756927,211.64226719175343C247.80804311756927,211.28671163619788,247.89693200645817,211.06448941397565,248.07470978423595,210.97560052508678C251.09693200645816,209.59782274730898,258.3413764509026,206.88671163619787,261.89693200645814,209.24226719175343C262.2524875620137,209.77560052508676,262.4302653397915,210.1311560806423,262.4302653397915,210.35337830286454C262.07470978423595,212.22004496953122,261.0080431175693,212.53115608064232,259.0080431175693,213.9089338584201C259.0080431175693,213.9089338584201,259.0080431175693,213.9089338584201,259.0080431175693,213.9089338584201M251.1413764509026,214.75337830286455C254.3413764509026,213.997822747309,257.1413764509026,213.02004496953123,259.31915422868036,211.64226719175343C260.2080431175693,211.06448941397565,260.69693200645816,210.62004496953122,260.69693200645816,210.44226719175344C260.7413764509026,210.17560052508676,259.36359867312484,209.86448941397566,259.0080431175693,209.9089338584201C256.60804311756925,209.9089338584201,253.85248756201372,210.4867116361979,250.7413764509026,211.73115608064234C251.2302653397915,212.66448941397567,250.78582089534706,213.86448941397566,251.1413764509026,214.75337830286455C251.1413764509026,214.75337830286455,251.1413764509026,214.75337830286455,251.1413764509026,214.75337830286455M259.27470978423594,219.95337830286456C259.27470978423594,219.77560052508676,259.40804311756926,219.68671163619788,259.09693200645813,219.73115608064234C259.09693200645813,219.77560052508676,259.1413764509026,219.8200449695312,259.27470978423594,219.95337830286456C259.27470978423594,219.95337830286456,259.27470978423594,219.95337830286456,259.27470978423594,219.95337830286456M257.0080431175693,215.64226719175343C255.49693200645817,215.95337830286456,252.83026533979148,216.7089338584201,250.83026533979148,216.30893385842012C250.56359867312483,217.197822747309,250.6524875620137,218.797822747309,250.6524875620137,219.95337830286456C250.6524875620137,221.24226719175343,252.56359867312483,219.997822747309,253.1413764509026,220.04226719175344C255.27470978423594,219.55337830286456,257.9413764509026,218.93115608064232,259.98582089534705,217.9089338584201C260.87470978423596,217.46448941397566,261.40804311756926,217.15337830286455,261.40804311756926,216.797822747309C261.40804311756926,215.997822747309,259.9413764509026,215.64226719175343,257.0080431175693,215.64226719175343C257.0080431175693,215.64226719175343,257.0080431175693,215.64226719175343,257.0080431175693,215.64226719175343M256.2969320064582,220.97560052508678C256.56359867312483,221.02004496953123,256.56359867312483,220.88671163619787,256.5191542286804,220.66448941397567C256.385820895347,220.75337830286455,256.2080431175693,220.75337830286455,256.2969320064582,220.97560052508678C256.2969320064582,220.97560052508678,256.2969320064582,220.97560052508678,256.2969320064582,220.97560052508678M268.60804311756925,215.68671163619788C270.9191542286803,214.62004496953122,273.23026533979146,216.4867116361979,273.23026533979146,218.4867116361979C273.23026533979146,221.1089338584201,270.2969320064581,221.46448941397566,268.1635986731248,222.17560052508676C265.85248756201366,222.0867116361979,263.0524875620137,219.95337830286456,264.60804311756925,217.5089338584201C265.63026533979144,216.7089338584201,266.9191542286803,215.95337830286456,268.60804311756925,215.68671163619788C268.60804311756925,215.68671163619788,268.60804311756925,215.68671163619788,268.60804311756925,215.68671163619788M265.80804311756924,219.197822747309C266.51915422868035,221.59782274730898,271.3635986731248,219.9089338584201,271.63026533979144,218.17560052508676C271.09693200645813,215.55337830286456,265.89693200645814,217.8200449695312,265.80804311756924,219.197822747309C265.80804311756924,219.197822747309,265.80804311756924,219.197822747309,265.80804311756924,219.197822747309M277.0080431175693,215.64226719175343C280.07470978423595,215.68671163619788,282.474709784236,215.64226719175343,282.96359867312486,217.95337830286456C283.1858208953471,219.1089338584201,279.8080431175693,221.1089338584201,278.65248756201373,221.06448941397565C278.16359867312485,221.55337830286456,274.74137645090264,222.04226719175344,274.474709784236,222.04226719175344C273.9858208953471,221.9089338584201,273.3191542286804,221.24226719175343,274.2080431175693,220.97560052508678C275.05248756201377,220.75337830286455,274.11915422868043,220.13115608064234,274.16359867312485,219.4200449695312C274.2080431175693,218.62004496953122,274.65248756201373,217.8200449695312,273.9413764509026,217.33115608064233C273.674709784236,216.57560052508677,273.674709784236,216.397822747309,274.56359867312483,215.9089338584201C274.83026533979154,213.9089338584201,275.36359867312484,211.95337830286456,275.8080431175693,210.397822747309C275.8969320064582,210.0867116361979,276.16359867312485,209.86448941397566,276.56359867312483,209.73115608064234C276.78582089534706,209.86448941397566,277.0080431175693,210.22004496953122,277.27470978423594,210.97560052508678C276.74137645090264,212.17560052508676,276.6969320064582,213.77560052508676,276.25248756201375,215.24226719175343C276.25248756201375,215.5089338584201,276.5191542286804,215.64226719175343,277.0080431175693,215.64226719175343C277.0080431175693,215.64226719175343,277.0080431175693,215.64226719175343,277.0080431175693,215.64226719175343M277.3191542286804,217.1089338584201C275.54137645090265,216.7089338584201,275.9413764509026,218.4867116361979,275.58582089534707,219.5089338584201C275.9413764509026,220.17560052508676,275.58582089534707,220.62004496953122,276.11915422868043,220.4867116361979C277.45248756201374,220.13115608064234,278.78582089534706,219.68671163619788,280.0302653397915,219.06448941397565C281.7635986731249,218.26448941397567,282.2080431175693,217.59782274730898,279.9858208953471,217.197822747309C279.0969320064582,217.02004496953123,277.9858208953471,216.88671163619787,277.3191542286804,217.1089338584201C277.3191542286804,217.1089338584201,277.3191542286804,217.1089338584201,277.3191542286804,217.1089338584201"></path><path style="-webkit-tap-highlight-color: rgba(0, 0, 0, 0);" fill="none" stroke="#000000" d="M271.12272944811673,53.97797923394532C277.0473707150835,184.95012244208962,265.19808818114996,50.417902751633925,271.12272944811673,202.09401090811414" stroke-width="2"></path><path style="-webkit-tap-highlight-color: rgba(0, 0, 0, 0);" fill="none" stroke="#000000" d="M38.62365885636536,100.87235209473323C131.78173355482815,109.76589564461497,227.95772083856914,93.14478337060503,266.2425777907927,99.80828620150405" stroke-width="2" marker-end="url(#raphael-marker-endblock55)" stroke-dasharray="0"></path><rect style="-webkit-tap-highlight-color: rgba(0, 0, 0, 0);" x="51.01513493128068" y="73.92291216396437" width="212.49907059175138" height="21.89437286078791" r="0" rx="0" ry="0" fill="#ffffff" stroke="#000" stroke-width="0"></rect><path style="-webkit-tap-highlight-color: rgba(0, 0, 0, 0);" fill="#000000" stroke="none" d="M64.00309441192093,75.79554344211704C64.80309441192094,76.32887677545037,64.84753885636538,77.21776566433925,64.1808721896987,78.0622101087837C62.625316634143154,80.01776566433927,62.6697610785876,84.28443233100593,62.13642774525427,87.70665455322815C62.09198330080982,87.92887677545038,61.914205523032045,88.28443233100593,61.64753885636537,88.23998788656148C61.38087218969871,88.28443233100593,60.80309441192093,87.61776566433926,60.847538856365375,87.03998788656148C60.847538856365375,87.03998788656148,61.158649967476485,82.32887677545037,61.158649967476485,82.32887677545037C59.914205523032045,82.63998788656149,57.78087218969871,83.30665455322814,56.003094411920934,82.95109899767259C55.20309441192093,83.03998788656148,54.40309441192093,83.21776566433925,53.558649967476484,83.08443233100593C51.64753885636537,82.72887677545037,52.936427745254264,85.43998788656148,52.09198330080982,86.41776566433926C50.80309441192093,86.46221010878371,50.936427745254264,83.43998788656148,51.158649967476485,82.10665455322815C51.38087218969871,80.72887677545037,52.40309441192093,78.8622101087837,53.0697610785876,77.75109899767259C53.158649967476485,77.83998788656149,53.38087218969871,77.88443233100593,53.691983300809824,77.88443233100593C54.2697610785876,79.3510989976726,53.20309441192093,80.01776566433927,53.11420552303204,81.3510989976726C55.82531663414316,81.52887677545037,58.35864996747649,81.43998788656148,60.936427745254264,81.43998788656148C61.29198330080982,81.43998788656148,61.51420552303205,81.17332121989482,61.603094411920935,80.5510989976726C61.78087218969871,78.46221010878371,62.536427745254265,76.68443233100592,64.00309441192093,75.79554344211704C64.00309441192093,75.79554344211704,64.00309441192093,75.79554344211704,64.00309441192093,75.79554344211704M63.64753885636537,85.17332121989482C63.64753885636537,82.59554344211703,65.91420552303204,82.01776566433927,68.53642774525426,81.88443233100593C70.00309441192093,81.83998788656149,70.53642774525426,82.59554344211703,71.15864996747648,83.43998788656148C71.20309441192093,84.0622101087837,71.24753885636537,85.17332121989482,70.84753885636538,85.30665455322814C69.78087218969871,85.21776566433925,67.60309441192094,85.88443233100593,66.44753885636537,85.79554344211704C66.35864996747648,85.88443233100593,66.35864996747648,85.92887677545038,66.35864996747648,85.92887677545038C66.35864996747648,86.0622101087837,66.89198330080981,86.28443233100593,68.00309441192093,86.59554344211703C68.93642774525426,86.59554344211703,71.06976107858759,86.99554344211704,69.3808721896987,87.57332121989481C68.9808721896987,88.19554344211704,67.8697610785876,87.83998788656149,66.89198330080981,87.83998788656149C65.69198330080982,87.61776566433926,63.64753885636537,86.59554344211703,63.64753885636537,85.17332121989482C63.64753885636537,85.17332121989482,63.64753885636537,85.17332121989482,63.64753885636537,85.17332121989482M68.93642774525426,83.17332121989482C67.95864996747649,83.2622101087837,65.91420552303204,83.39554344211703,66.04753885636538,84.32887677545037C67.11420552303204,84.23998788656148,68.9808721896987,84.5510989976726,69.55864996747648,84.0622101087837C69.33642774525427,83.48443233100592,69.51420552303205,83.48443233100592,68.93642774525426,83.17332121989482C68.93642774525426,83.17332121989482,68.93642774525426,83.17332121989482,68.93642774525426,83.17332121989482M74.49198330080982,74.37332121989482C75.42531663414314,74.10665455322815,76.13642774525427,75.39554344211703,75.82531663414315,76.81776566433926C75.3808721896987,79.08443233100593,74.58087218969871,82.81776566433926,74.58087218969871,86.0622101087837C74.58087218969871,86.5510989976726,74.84753885636538,87.6622101087837,74.00309441192093,87.70665455322815C72.71420552303204,87.48443233100592,72.6697610785876,85.57332121989481,72.89198330080981,84.01776566433927C72.89198330080981,84.01776566433927,74.13642774525427,76.15109899767259,74.13642774525427,76.15109899767259C73.8697610785876,75.39554344211703,74.1808721896987,74.8622101087837,74.49198330080982,74.37332121989482C74.49198330080982,74.37332121989482,74.49198330080982,74.37332121989482,74.49198330080982,74.37332121989482M79.02531663414315,74.37332121989482C79.95864996747648,74.10665455322815,80.6697610785876,75.39554344211703,80.35864996747648,76.81776566433926C79.91420552303204,79.08443233100593,79.11420552303204,82.81776566433926,79.11420552303204,86.0622101087837C79.11420552303204,86.5510989976726,79.3808721896987,87.6622101087837,78.53642774525426,87.70665455322815C77.24753885636537,87.48443233100592,77.20309441192093,85.57332121989481,77.42531663414314,84.01776566433927C77.42531663414314,84.01776566433927,78.6697610785876,76.15109899767259,78.6697610785876,76.15109899767259C78.40309441192093,75.39554344211703,78.71420552303204,74.8622101087837,79.02531663414315,74.37332121989482C79.02531663414315,74.37332121989482,79.02531663414315,74.37332121989482,79.02531663414315,74.37332121989482M85.42531663414314,81.52887677545037C87.73642774525426,80.46221010878371,90.04753885636536,82.32887677545037,90.04753885636536,84.32887677545037C90.04753885636536,86.95109899767259,87.11420552303204,87.30665455322814,84.9808721896987,88.01776566433927C82.6697610785876,87.92887677545038,79.86976107858759,85.79554344211704,81.42531663414314,83.3510989976726C82.44753885636537,82.5510989976726,83.73642774525426,81.79554344211704,85.42531663414314,81.52887677545037C85.42531663414314,81.52887677545037,85.42531663414314,81.52887677545037,85.42531663414314,81.52887677545037M82.62531663414315,85.03998788656148C83.33642774525426,87.43998788656148,88.1808721896987,85.75109899767259,88.44753885636537,84.01776566433927C87.91420552303204,81.39554344211703,82.71420552303204,83.66221010878371,82.62531663414315,85.03998788656148C82.62531663414315,85.03998788656148,82.62531663414315,85.03998788656148,82.62531663414315,85.03998788656148M109.60309441192094,79.75109899767259C111.42531663414316,80.19554344211704,114.71420552303205,81.2622101087837,113.64753885636537,83.79554344211704C113.3808721896987,83.92887677545038,113.02531663414315,84.32887677545037,112.80309441192094,84.68443233100592C111.15864996747649,85.52887677545037,110.58087218969871,86.19554344211704,110.00309441192093,85.79554344211704C109.60309441192094,86.23998788656148,109.4697610785876,86.28443233100593,108.49198330080982,86.37332121989482C108.49198330080982,86.37332121989482,108.62531663414316,86.23998788656148,108.62531663414316,86.23998788656148C108.44753885636538,86.0622101087837,108.09198330080983,86.0622101087837,107.82531663414315,86.23998788656148C107.82531663414315,86.23998788656148,107.91420552303205,86.32887677545037,108.04753885636538,86.41776566433926C107.11420552303204,87.03998788656148,106.89198330080983,86.68443233100592,106.09198330080983,87.08443233100593C105.91420552303204,87.08443233100593,105.78087218969871,86.99554344211704,105.73642774525426,86.8622101087837C105.4697610785876,87.3510989976726,104.84753885636538,86.63998788656149,104.93642774525426,87.3510989976726C103.33642774525427,87.52887677545037,100.89198330080983,88.90665455322815,99.8697610785876,87.52887677545037C99.55864996747648,84.77332121989481,99.42531663414316,81.39554344211703,100.04753885636538,78.68443233100592C100.00309441192093,77.83998788656149,98.40309441192093,78.77332121989481,98.40309441192093,77.48443233100592C98.40309441192093,77.12887677545037,98.49198330080982,76.90665455322815,98.6697610785876,76.81776566433926C101.69198330080982,75.43998788656148,108.93642774525426,72.72887677545037,112.49198330080982,75.08443233100593C112.84753885636538,75.61776566433926,113.02531663414315,75.97332121989481,113.02531663414315,76.19554344211704C112.6697610785876,78.0622101087837,111.60309441192094,78.37332121989482,109.60309441192094,79.75109899767259C109.60309441192094,79.75109899767259,109.60309441192094,79.75109899767259,109.60309441192094,79.75109899767259M101.73642774525426,80.59554344211703C104.93642774525426,79.83998788656149,107.73642774525426,78.8622101087837,109.91420552303205,77.48443233100592C110.80309441192094,76.90665455322815,111.29198330080982,76.46221010878371,111.29198330080982,76.28443233100593C111.33642774525427,76.01776566433927,109.95864996747649,75.70665455322815,109.60309441192094,75.75109899767259C107.20309441192093,75.75109899767259,104.44753885636538,76.32887677545037,101.33642774525427,77.57332121989481C101.82531663414315,78.50665455322815,101.3808721896987,79.70665455322815,101.73642774525426,80.59554344211703C101.73642774525426,80.59554344211703,101.73642774525426,80.59554344211703,101.73642774525426,80.59554344211703M109.8697610785876,85.79554344211704C109.8697610785876,85.61776566433926,110.00309441192093,85.52887677545037,109.69198330080982,85.57332121989481C109.69198330080982,85.61776566433926,109.73642774525426,85.6622101087837,109.8697610785876,85.79554344211704C109.8697610785876,85.79554344211704,109.8697610785876,85.79554344211704,109.8697610785876,85.79554344211704M107.60309441192094,81.48443233100592C106.09198330080983,81.79554344211704,103.42531663414316,82.5510989976726,101.42531663414316,82.15109899767259C101.15864996747649,83.03998788656148,101.24753885636538,84.63998788656149,101.24753885636538,85.79554344211704C101.24753885636538,87.08443233100593,103.15864996747649,85.83998788656149,103.73642774525426,85.88443233100593C105.8697610785876,85.39554344211703,108.53642774525427,84.77332121989481,110.58087218969871,83.75109899767259C111.4697610785876,83.30665455322814,112.00309441192093,82.99554344211704,112.00309441192093,82.63998788656149C112.00309441192093,81.83998788656149,110.53642774525427,81.48443233100592,107.60309441192094,81.48443233100592C107.60309441192094,81.48443233100592,107.60309441192094,81.48443233100592,107.60309441192094,81.48443233100592M106.89198330080983,86.81776566433926C107.15864996747649,86.8622101087837,107.15864996747649,86.72887677545037,107.11420552303204,86.50665455322815C106.98087218969872,86.59554344211703,106.80309441192094,86.59554344211703,106.89198330080983,86.81776566433926C106.89198330080983,86.81776566433926,106.89198330080983,86.81776566433926,106.89198330080983,86.81776566433926M119.20309441192093,81.52887677545037C121.51420552303205,80.46221010878371,123.82531663414315,82.32887677545037,123.82531663414315,84.32887677545037C123.82531663414315,86.95109899767259,120.89198330080983,87.30665455322814,118.75864996747649,88.01776566433927C116.44753885636538,87.92887677545038,113.64753885636537,85.79554344211704,115.20309441192093,83.3510989976726C116.22531663414316,82.5510989976726,117.51420552303205,81.79554344211704,119.20309441192093,81.52887677545037C119.20309441192093,81.52887677545037,119.20309441192093,81.52887677545037,119.20309441192093,81.52887677545037M116.40309441192093,85.03998788656148C117.11420552303204,87.43998788656148,121.95864996747649,85.75109899767259,122.22531663414316,84.01776566433927C121.69198330080982,81.39554344211703,116.49198330080982,83.66221010878371,116.40309441192093,85.03998788656148C116.40309441192093,85.03998788656148,116.40309441192093,85.03998788656148,116.40309441192093,85.03998788656148M127.60309441192094,81.48443233100592C130.6697610785876,81.52887677545037,133.0697610785876,81.48443233100592,133.5586499674765,83.79554344211704C133.7808721896987,84.95109899767259,130.40309441192093,86.95109899767259,129.24753885636537,86.90665455322815C128.7586499674765,87.39554344211703,125.33642774525427,87.88443233100593,125.0697610785876,87.88443233100593C124.58087218969871,87.7510989976726,123.91420552303204,87.08443233100593,124.80309441192094,86.81776566433926C125.64753885636537,86.59554344211703,124.71420552303205,85.97332121989481,124.75864996747649,85.2622101087837C124.80309441192094,84.46221010878371,125.24753885636538,83.66221010878371,124.53642774525427,83.17332121989482C124.2697610785876,82.41776566433926,124.2697610785876,82.23998788656148,125.15864996747649,81.75109899767259C125.42531663414316,79.75109899767259,125.95864996747649,77.79554344211704,126.40309441192093,76.23998788656148C126.49198330080982,75.92887677545036,126.75864996747649,75.70665455322815,127.15864996747649,75.57332121989481C127.3808721896987,75.70665455322815,127.60309441192094,76.0622101087837,127.8697610785876,76.81776566433926C127.33642774525427,78.01776566433927,127.29198330080982,79.61776566433926,126.84753885636538,81.08443233100593C126.84753885636538,81.3510989976726,127.11420552303204,81.48443233100592,127.60309441192094,81.48443233100592C127.60309441192094,81.48443233100592,127.60309441192094,81.48443233100592,127.60309441192094,81.48443233100592M127.91420552303204,82.95109899767259C126.13642774525427,82.5510989976726,126.53642774525427,84.32887677545037,126.18087218969872,85.3510989976726C126.53642774525427,86.01776566433927,126.18087218969872,86.46221010878371,126.71420552303205,86.32887677545037C128.04753885636538,85.97332121989481,129.38087218969872,85.52887677545037,130.62531663414316,84.90665455322815C132.35864996747648,84.10665455322815,132.80309441192094,83.43998788656148,130.5808721896987,83.03998788656148C129.69198330080982,82.8622101087837,128.5808721896987,82.72887677545037,127.91420552303204,82.95109899767259C127.91420552303204,82.95109899767259,127.91420552303204,82.95109899767259,127.91420552303204,82.95109899767259M134.8030944119209,90.50665455322815C133.64753885636534,91.43998788656148,132.66976107858758,90.41776566433926,133.82531663414312,89.43998788656148C134.44753885636536,88.90665455322815,135.3808721896987,87.6622101087837,135.3808721896987,86.37332121989482C135.51420552303202,86.28443233100593,135.51420552303202,85.88443233100593,135.91420552303202,85.97332121989481C137.46976107858757,86.72887677545037,136.13642774525425,89.88443233100593,134.8030944119209,90.50665455322815C134.8030944119209,90.50665455322815,134.8030944119209,90.50665455322815,134.8030944119209,90.50665455322815M150.40309441192093,73.92887677545036C150.8919833008098,73.83998788656149,150.84753885636536,74.77332121989481,150.8919833008098,74.81776566433926C150.40309441192093,77.12887677545037,149.11420552303204,80.72887677545037,148.53642774525426,83.21776566433925C148.26976107858758,84.5510989976726,148.13642774525425,84.8622101087837,148.13642774525425,85.30665455322814C149.33642774525424,85.30665455322814,153.15864996747646,83.79554344211704,154.4919833008098,83.79554344211704C156.35864996747648,83.79554344211704,155.8697610785876,85.88443233100593,156.22531663414316,87.30665455322814C156.22531663414316,87.48443233100592,156.00309441192093,88.0622101087837,155.51420552303202,88.01776566433927C155.6919833008098,88.10665455322815,156.00309441192093,88.15109899767259,155.6919833008098,88.28443233100593C154.62531663414313,88.23998788656148,154.44753885636536,86.77332121989481,154.5808721896987,85.43998788656148C154.53642774525426,85.39554344211703,154.4919833008098,85.30665455322814,154.35864996747648,85.21776566433925C152.0919833008098,85.21776566433925,149.4697610785876,86.90665455322815,147.15864996747646,87.48443233100592C146.7586499674765,87.52887677545037,146.4919833008098,86.81776566433926,146.44753885636536,86.46221010878371C147.20309441192092,82.50665455322815,148.1808721896987,80.19554344211704,149.60309441192092,74.72887677545037C149.60309441192092,74.32887677545037,149.8697610785876,73.88443233100593,150.40309441192093,73.92887677545036C150.40309441192093,73.92887677545036,150.40309441192093,73.92887677545036,150.40309441192093,73.92887677545036M161.91420552303205,81.52887677545037C164.22531663414316,80.46221010878371,166.53642774525426,82.32887677545037,166.53642774525426,84.32887677545037C166.53642774525426,86.95109899767259,163.60309441192092,87.30665455322814,161.4697610785876,88.01776566433927C159.1586499674765,87.92887677545038,156.35864996747648,85.79554344211704,157.91420552303205,83.3510989976726C158.93642774525426,82.5510989976726,160.22531663414316,81.79554344211704,161.91420552303205,81.52887677545037C161.91420552303205,81.52887677545037,161.91420552303205,81.52887677545037,161.91420552303205,81.52887677545037M159.11420552303204,85.03998788656148C159.82531663414315,87.43998788656148,164.66976107858758,85.75109899767259,164.93642774525426,84.01776566433927C164.40309441192093,81.39554344211703,159.20309441192094,83.66221010878371,159.11420552303204,85.03998788656148C159.11420552303204,85.03998788656148,159.11420552303204,85.03998788656148,159.11420552303204,85.03998788656148M167.42531663414314,81.52887677545037C169.11420552303204,81.43998788656148,168.62531663414316,84.0622101087837,169.42531663414314,85.3510989976726C170.7586499674765,85.43998788656148,172.40309441192093,82.41776566433926,173.91420552303205,81.88443233100593C175.0697610785876,82.15109899767259,175.51420552303205,84.95109899767259,176.5808721896987,85.3510989976726C178.6697610785876,83.79554344211704,178.84753885636536,82.95109899767259,181.8697610785876,80.72887677545037C182.00309441192093,80.72887677545037,182.1808721896987,80.63998788656149,182.53642774525426,80.5510989976726C183.38087218969872,81.57332121989481,182.13642774525425,81.79554344211704,181.60309441192092,82.72887677545037C180.13642774525425,83.97332121989481,178.5808721896987,86.72887677545037,176.84753885636536,87.57332121989481C176.40309441192093,87.83998788656149,174.53642774525426,85.48443233100592,173.64753885636537,84.41776566433926C172.7586499674765,85.17332121989482,169.8697610785876,87.70665455322815,169.33642774525427,87.6622101087837C167.64753885636537,87.97332121989481,167.51420552303205,83.30665455322814,167.02531663414317,82.23998788656148C167.02531663414317,82.19554344211704,167.1586499674765,81.92887677545038,167.42531663414314,81.52887677545037C167.42531663414314,81.52887677545037,167.42531663414314,81.52887677545037,167.42531663414314,81.52887677545037M194.6697610785876,85.21776566433925C195.11420552303204,85.39554344211703,197.29198330080982,87.03998788656148,197.5586499674765,87.43998788656148C197.60309441192095,87.7510989976726,197.29198330080982,88.19554344211704,197.02531663414317,88.19554344211704C197.02531663414317,88.19554344211704,194.35864996747648,86.8622101087837,194.35864996747648,86.8622101087837C193.38087218969872,86.95109899767259,192.49198330080984,87.79554344211704,191.4697610785876,87.70665455322815C190.00309441192093,87.88443233100593,188.44753885636538,84.72887677545037,190.80309441192094,84.10665455322815C192.62531663414316,82.90665455322815,195.0697610785876,82.37332121989482,195.69198330080982,84.50665455322815C195.69198330080982,84.77332121989481,195.51420552303205,85.03998788656148,195.20309441192094,85.21776566433925C193.73642774525428,84.10665455322815,192.22531663414316,84.99554344211704,191.29198330080982,85.75109899767259C191.73642774525428,86.46221010878371,194.00309441192093,84.95109899767259,194.6697610785876,85.21776566433925C194.6697610785876,85.21776566433925,194.6697610785876,85.21776566433925,194.6697610785876,85.21776566433925M208.62531663414316,82.50665455322815C208.71420552303204,83.48443233100592,208.8475388563654,82.95109899767259,208.00309441192093,83.52887677545037C204.7586499674765,83.21776566433925,200.62531663414316,82.50665455322815,200.2697610785876,86.01776566433927C199.91420552303205,86.28443233100593,200.13642774525428,86.90665455322815,199.91420552303205,87.61776566433926C198.62531663414316,88.0622101087837,198.13642774525428,87.21776566433925,198.44753885636538,85.57332121989481C198.71420552303204,84.19554344211704,198.7586499674765,82.50665455322815,199.8697610785876,83.12887677545037C202.44753885636538,81.48443233100592,202.80309441192094,81.2622101087837,207.64753885636537,82.28443233100593C207.7808721896987,82.50665455322815,208.31420552303206,82.46221010878371,208.62531663414316,82.50665455322815C208.62531663414316,82.50665455322815,208.62531663414316,82.50665455322815,208.62531663414316,82.50665455322815M208.22531663414316,85.17332121989482C208.22531663414316,82.59554344211703,210.49198330080984,82.01776566433927,213.11420552303204,81.88443233100593C214.5808721896987,81.83998788656149,215.11420552303204,82.59554344211703,215.73642774525428,83.43998788656148C215.7808721896987,84.0622101087837,215.82531663414315,85.17332121989482,215.42531663414314,85.30665455322814C214.35864996747648,85.21776566433925,212.1808721896987,85.88443233100593,211.02531663414317,85.79554344211704C210.93642774525426,85.88443233100593,210.93642774525426,85.92887677545038,210.93642774525426,85.92887677545038C210.93642774525426,86.0622101087837,211.4697610785876,86.28443233100593,212.5808721896987,86.59554344211703C213.51420552303205,86.59554344211703,215.64753885636537,86.99554344211704,213.9586499674765,87.57332121989481C213.5586499674765,88.19554344211704,212.44753885636538,87.83998788656149,211.4697610785876,87.83998788656149C210.2697610785876,87.61776566433926,208.22531663414316,86.59554344211703,208.22531663414316,85.17332121989482C208.22531663414316,85.17332121989482,208.22531663414316,85.17332121989482,208.22531663414316,85.17332121989482M213.51420552303205,83.17332121989482C212.53642774525426,83.2622101087837,210.49198330080984,83.39554344211703,210.62531663414316,84.32887677545037C211.69198330080982,84.23998788656148,213.5586499674765,84.5510989976726,214.13642774525428,84.0622101087837C213.91420552303205,83.48443233100592,214.09198330080983,83.48443233100592,213.51420552303205,83.17332121989482C213.51420552303205,83.17332121989482,213.51420552303205,83.17332121989482,213.51420552303205,83.17332121989482M226.04753885636538,84.81776566433926C227.02531663414317,86.28443233100593,229.1586499674765,84.99554344211704,230.44753885636538,84.46221010878371C230.6697610785876,84.28443233100593,231.69198330080982,83.79554344211704,232.2697610785876,83.08443233100593C232.2697610785876,83.08443233100593,233.02531663414317,83.08443233100593,233.02531663414317,83.08443233100593C234.13642774525428,85.17332121989482,231.8697610785876,86.19554344211704,231.2475388563654,88.15109899767259C231.02531663414317,88.32887677545037,230.8475388563654,88.50665455322815,230.80309441192094,89.08443233100593C230.09198330080983,89.61776566433926,230.31420552303206,90.5510989976726,229.60309441192095,91.3510989976726C229.38087218969872,92.15109899767259,229.06976107858762,93.2622101087837,228.5808721896987,94.50665455322815C228.5364277452543,94.46221010878371,228.49198330080984,96.01776566433927,227.78087218969873,95.79554344211704C227.2475388563654,95.83998788656149,226.80309441192094,95.2622101087837,226.80309441192094,94.77332121989481C227.69198330080982,91.66221010878371,227.8697610785876,91.88443233100593,229.82531663414315,86.90665455322815C227.73642774525428,87.61776566433926,224.89198330080984,87.2622101087837,224.6697610785876,85.17332121989482C224.18087218969873,84.59554344211703,224.3586499674765,82.41776566433926,225.02531663414317,82.41776566433926C225.82531663414315,82.41776566433926,226.00309441192093,83.57332121989481,226.04753885636538,84.81776566433926C226.04753885636538,84.81776566433926,226.04753885636538,84.81776566433926,226.04753885636538,84.81776566433926M238.49198330080984,81.52887677545037C240.80309441192094,80.46221010878371,243.11420552303204,82.32887677545037,243.11420552303204,84.32887677545037C243.11420552303204,86.95109899767259,240.1808721896987,87.30665455322814,238.04753885636538,88.01776566433927C235.73642774525428,87.92887677545038,232.93642774525426,85.79554344211704,234.49198330080984,83.3510989976726C235.51420552303205,82.5510989976726,236.80309441192094,81.79554344211704,238.49198330080984,81.52887677545037C238.49198330080984,81.52887677545037,238.49198330080984,81.52887677545037,238.49198330080984,81.52887677545037M235.69198330080982,85.03998788656148C236.40309441192093,87.43998788656148,241.24753885636537,85.75109899767259,241.51420552303205,84.01776566433927C240.98087218969872,81.39554344211703,235.78087218969873,83.66221010878371,235.69198330080982,85.03998788656148C235.69198330080982,85.03998788656148,235.69198330080982,85.03998788656148,235.69198330080982,85.03998788656148M252.53642774525426,81.66221010878371C252.49198330080984,81.57332121989481,253.02531663414317,81.03998788656148,253.1586499674765,81.08443233100593C253.42531663414314,81.08443233100593,253.60309441192095,81.39554344211703,253.60309441192095,82.0622101087837C253.4697610785876,83.83998788656149,252.5808721896987,84.5510989976726,251.82531663414315,85.70665455322815C251.2475388563654,86.5510989976726,249.0697610785876,87.61776566433926,247.69198330080982,87.61776566433926C244.71420552303204,87.52887677545037,242.7586499674765,84.28443233100593,244.53642774525426,81.70665455322815C245.69198330080982,81.57332121989481,245.4697610785876,82.99554344211704,245.38087218969872,83.88443233100593C245.33642774525427,85.08443233100593,246.53642774525426,85.83998788656149,247.91420552303205,85.75109899767259C249.73642774525428,85.6622101087837,252.04753885636538,83.30665455322814,252.53642774525426,81.66221010878371C252.53642774525426,81.66221010878371,252.53642774525426,81.66221010878371,252.53642774525426,81.66221010878371M258.7586499674765,74.77332121989481C261.2919833008098,74.19554344211704,263.51420552303205,74.59554344211703,263.51420552303205,76.50665455322815C263.51420552303205,79.48443233100592,257.4697610785876,80.28443233100593,256.6253166341432,82.59554344211703C256.5808721896987,82.8622101087837,257.0697610785876,83.61776566433926,256.4475388563654,83.61776566433926C255.42531663414317,83.66221010878371,254.98087218969872,82.0622101087837,255.42531663414317,81.08443233100593C256.80309441192094,79.2622101087837,260.93642774525426,78.41776566433926,262.0475388563654,76.50665455322815C261.69198330080985,75.57332121989481,258.84753885636536,76.28443233100593,258.13642774525425,76.46221010878371C257.11420552303207,76.72887677545037,255.51420552303205,78.19554344211704,254.98087218969872,76.81776566433926C254.98087218969872,76.81776566433926,254.93642774525426,76.81776566433926,255.02531663414317,76.0622101087837C255.4697610785876,75.88443233100593,257.02531663414317,75.17332121989482,258.7586499674765,74.77332121989481C258.7586499674765,74.77332121989481,258.7586499674765,74.77332121989481,258.7586499674765,74.77332121989481M257.6475388563654,86.59554344211703C257.3808721896987,86.77332121989481,257.2919833008098,88.32887677545037,256.5808721896987,87.57332121989481C255.51420552303205,87.70665455322815,255.60309441192095,86.63998788656149,256.0030944119209,86.01776566433927C256.7586499674765,85.70665455322815,257.2919833008098,86.23998788656148,257.6475388563654,86.59554344211703C257.6475388563654,86.59554344211703,257.6475388563654,86.59554344211703,257.6475388563654,86.59554344211703"></path><path style="-webkit-tap-highlight-color: rgba(0, 0, 0, 0);" fill="#ffffff" stroke="#000000" d="M291.12272944811673,115.87235209473323C312.45238555398294,120.00939518604234,352.56640234708254,111.73530900342412,394.5488067308444,115.87235209473323C393.5743459241627,137.86129864993902,395.52326753752607,122.85463668882096,394.5488067308444,140.2338722617748C393.4242535537096,144.3709153530839,350.8471747057133,136.0968291704657,291.12272944811673,140.2338722617748C292.0971902547984,124.67246296685902,290.14826864143504,129.34438320842384,291.12272944811673,115.87235209473323" stroke-width="2"></path><path style="-webkit-tap-highlight-color: rgba(0, 0, 0, 0);" fill="#000000" stroke="none" d="M309.5466094481168,122.8790455115874C311.368831670339,123.32348995603185,314.65772055922787,124.39015662269851,313.5910538925612,126.92348995603184C313.32438722589455,127.05682328936518,312.968831670339,127.45682328936518,312.74660944811677,127.81237884492073C311.1021650036723,128.65682328936518,310.52438722589454,129.32348995603184,309.94660944811676,128.92348995603186C309.5466094481168,129.3679344004763,309.41327611478346,129.41237884492074,308.43549833700564,129.5012677338096C308.43549833700564,129.5012677338096,308.56883167033897,129.3679344004763,308.56883167033897,129.3679344004763C308.3910538925612,129.1901566226985,308.03549833700566,129.1901566226985,307.768831670339,129.3679344004763C307.768831670339,129.3679344004763,307.85772055922786,129.4568232893652,307.99105389256124,129.54571217825406C307.0577205592279,130.1679344004763,306.8354983370057,129.81237884492074,306.03549833700566,130.21237884492072C305.85772055922786,130.21237884492072,305.72438722589453,130.12348995603185,305.6799427814501,129.99015662269852C305.41327611478346,130.4790455115874,304.7910538925612,129.7679344004763,304.8799427814501,130.4790455115874C303.2799427814501,130.65682328936518,300.8354983370057,132.03460106714294,299.81327611478343,130.65682328936518C299.5021650036723,127.90126773380962,299.368831670339,124.52348995603184,299.9910538925612,121.81237884492073C299.94660944811676,120.96793440047628,298.3466094481168,121.90126773380962,298.3466094481168,120.61237884492073C298.3466094481168,120.25682328936517,298.43549833700564,120.03460106714296,298.61327611478345,119.94571217825407C301.63549833700563,118.56793440047629,308.8799427814501,115.85682328936518,312.43549833700564,118.21237884492074C312.7910538925612,118.74571217825407,312.968831670339,119.10126773380962,312.968831670339,119.32348995603185C312.61327611478345,121.19015662269851,311.5466094481168,121.50126773380963,309.5466094481168,122.8790455115874C309.5466094481168,122.8790455115874,309.5466094481168,122.8790455115874,309.5466094481168,122.8790455115874M301.6799427814501,123.72348995603184C304.8799427814501,122.96793440047628,307.6799427814501,121.9901566226985,309.85772055922786,120.61237884492073C310.74660944811677,120.03460106714296,311.23549833700565,119.59015662269852,311.23549833700565,119.41237884492074C311.2799427814501,119.14571217825406,309.90216500367234,118.83460106714296,309.5466094481168,118.8790455115874C307.14660944811675,118.8790455115874,304.3910538925612,119.45682328936518,301.2799427814501,120.70126773380963C301.768831670339,121.63460106714295,301.32438722589455,122.83460106714296,301.6799427814501,123.72348995603184C301.6799427814501,123.72348995603184,301.6799427814501,123.72348995603184,301.6799427814501,123.72348995603184M309.81327611478343,128.92348995603186C309.81327611478343,128.74571217825405,309.94660944811676,128.65682328936518,309.63549833700563,128.70126773380963C309.63549833700563,128.74571217825405,309.6799427814501,128.7901566226985,309.81327611478343,128.92348995603186C309.81327611478343,128.92348995603186,309.81327611478343,128.92348995603186,309.81327611478343,128.92348995603186M307.5466094481168,124.61237884492073C306.03549833700566,124.92348995603184,303.368831670339,125.6790455115874,301.368831670339,125.2790455115874C301.1021650036723,126.16793440047628,301.19105389256123,127.76793440047629,301.19105389256123,128.92348995603186C301.19105389256123,130.21237884492072,303.1021650036723,128.96793440047628,303.6799427814501,129.01237884492073C305.81327611478343,128.52348995603185,308.4799427814501,127.90126773380962,310.52438722589454,126.8790455115874C311.41327611478346,126.43460106714295,311.94660944811676,126.12348995603185,311.94660944811676,125.76793440047629C311.94660944811676,124.96793440047628,310.4799427814501,124.61237884492073,307.5466094481168,124.61237884492073C307.5466094481168,124.61237884492073,307.5466094481168,124.61237884492073,307.5466094481168,124.61237884492073M306.8354983370057,129.94571217825407C307.1021650036723,129.99015662269852,307.1021650036723,129.85682328936517,307.0577205592279,129.63460106714297C306.9243872258945,129.72348995603184,306.74660944811677,129.72348995603184,306.8354983370057,129.94571217825407C306.8354983370057,129.94571217825407,306.8354983370057,129.94571217825407,306.8354983370057,129.94571217825407M319.14660944811675,124.65682328936518C321.4577205592278,123.59015662269852,323.76883167033895,125.45682328936518,323.76883167033895,127.45682328936518C323.76883167033895,130.0790455115874,320.8354983370056,130.43460106714295,318.7021650036723,131.14571217825406C316.39105389256116,131.05682328936518,313.5910538925612,128.92348995603186,315.14660944811675,126.4790455115874C316.16883167033893,125.6790455115874,317.4577205592278,124.92348995603184,319.14660944811675,124.65682328936518C319.14660944811675,124.65682328936518,319.14660944811675,124.65682328936518,319.14660944811675,124.65682328936518M316.34660944811674,128.1679344004763C317.05772055922785,130.56793440047628,321.9021650036723,128.8790455115874,322.16883167033893,127.14571217825407C321.63549833700563,124.52348995603184,316.43549833700564,126.7901566226985,316.34660944811674,128.1679344004763C316.34660944811674,128.1679344004763,316.34660944811674,128.1679344004763,316.34660944811674,128.1679344004763M327.5466094481167,124.61237884492073C330.6132761147834,124.65682328936518,333.0132761147834,124.61237884492073,333.5021650036723,126.92348995603184C333.72438722589453,128.0790455115874,330.34660944811674,130.0790455115874,329.1910538925612,130.03460106714294C328.7021650036723,130.52348995603185,325.2799427814501,131.01237884492073,325.0132761147834,131.01237884492073C324.52438722589454,130.8790455115874,323.85772055922786,130.21237884492072,324.7466094481167,129.94571217825407C325.5910538925612,129.72348995603184,324.65772055922787,129.10126773380964,324.7021650036723,128.3901566226985C324.7466094481167,127.59015662269852,325.1910538925612,126.7901566226985,324.47994278145006,126.30126773380962C324.2132761147834,125.54571217825406,324.2132761147834,125.36793440047629,325.10216500367227,124.8790455115874C325.368831670339,122.8790455115874,325.9021650036723,120.92348995603184,326.34660944811674,119.36793440047629C326.43549833700564,119.05682328936518,326.7021650036723,118.83460106714296,327.10216500367227,118.70126773380962C327.3243872258945,118.83460106714296,327.5466094481167,119.19015662269851,327.8132761147834,119.94571217825407C327.2799427814501,121.14571217825406,327.23549833700565,122.74571217825407,326.7910538925612,124.21237884492074C326.7910538925612,124.4790455115874,327.05772055922785,124.61237884492073,327.5466094481167,124.61237884492073C327.5466094481167,124.61237884492073,327.5466094481167,124.61237884492073,327.5466094481167,124.61237884492073M327.85772055922786,126.0790455115874C326.0799427814501,125.6790455115874,326.47994278145006,127.45682328936518,326.1243872258945,128.4790455115874C326.47994278145006,129.14571217825406,326.1243872258945,129.59015662269852,326.65772055922787,129.4568232893652C327.9910538925612,129.10126773380964,329.3243872258945,128.65682328936518,330.56883167033897,128.03460106714294C332.3021650036723,127.23460106714296,332.7466094481167,126.56793440047629,330.52438722589454,126.16793440047628C329.63549833700563,125.9901566226985,328.52438722589454,125.85682328936518,327.85772055922786,126.0790455115874C327.85772055922786,126.0790455115874,327.85772055922786,126.0790455115874,327.85772055922786,126.0790455115874M345.368831670339,124.16793440047628C345.81327611478343,122.34571217825406,346.9243872258945,118.56793440047629,348.2577205592279,118.21237884492074C348.43549833700564,118.25682328936517,349.32438722589455,119.05682328936518,348.74660944811677,119.81237884492073C347.9910538925612,120.7901566226985,347.4577205592279,122.34571217825406,347.14660944811675,124.43460106714295C348.3021650036723,124.7901566226985,349.368831670339,124.12348995603185,350.3910538925612,124.65682328936518C351.0132761147834,124.65682328936518,351.368831670339,124.7901566226985,351.368831670339,125.05682328936518C351.32438722589455,125.90126773380962,349.41327611478346,125.85682328936518,348.8354983370057,126.0790455115874C348.3910538925612,126.12348995603185,346.7910538925612,126.0790455115874,346.43549833700564,126.52348995603184C345.9910538925612,127.59015662269852,346.2577205592279,129.5012677338096,345.5466094481168,130.8790455115874C344.61327611478345,130.74571217825405,344.3910538925612,130.92348995603186,344.3910538925612,129.99015662269852C344.3910538925612,129.59015662269852,344.4799427814501,128.3901566226985,344.74660944811677,126.39015662269851C344.0799427814501,125.81237884492073,341.14660944811675,126.7901566226985,341.32438722589455,125.19015662269851C341.5021650036723,123.50126773380963,344.4799427814501,125.45682328936518,345.368831670339,124.16793440047628C345.368831670339,124.16793440047628,345.368831670339,124.16793440047628,345.368831670339,124.16793440047628M354.65772055922787,117.05682328936518C355.14660944811675,116.96793440047628,355.1021650036723,117.90126773380962,355.14660944811675,117.94571217825407C354.65772055922787,120.25682328936517,353.368831670339,123.85682328936518,352.7910538925612,126.34571217825406C352.52438722589454,127.6790455115874,352.3910538925612,127.9901566226985,352.3910538925612,128.43460106714295C353.5910538925612,128.43460106714295,357.4132761147834,126.92348995603184,358.74660944811677,126.92348995603184C360.6132761147834,126.92348995603184,360.1243872258945,129.01237884492073,360.47994278145006,130.43460106714295C360.47994278145006,130.61237884492073,360.25772055922783,131.1901566226985,359.76883167033895,131.14571217825406C359.94660944811676,131.23460106714296,360.25772055922783,131.2790455115874,359.94660944811676,131.41237884492074C358.8799427814501,131.3679344004763,358.7021650036723,129.90126773380962,358.8354983370056,128.56793440047628C358.7910538925612,128.52348995603185,358.74660944811677,128.43460106714295,358.6132761147834,128.34571217825408C356.34660944811674,128.34571217825408,353.72438722589453,130.03460106714294,351.4132761147834,130.61237884492073C351.0132761147834,130.65682328936518,350.74660944811677,129.94571217825407,350.7021650036723,129.59015662269852C351.4577205592279,125.63460106714295,352.43549833700564,123.32348995603185,353.85772055922786,117.85682328936518C353.85772055922786,117.45682328936518,354.1243872258945,117.01237884492073,354.65772055922787,117.05682328936518C354.65772055922787,117.05682328936518,354.65772055922787,117.05682328936518,354.65772055922787,117.05682328936518M364.1243872258945,121.54571217825406C364.43549833700564,122.34571217825406,364.52438722589454,122.56793440047629,363.90216500367234,123.23460106714296C362.8799427814501,122.96793440047628,362.968831670339,122.43460106714295,363.4132761147834,121.63460106714295C363.5021650036723,121.63460106714295,363.76883167033895,121.59015662269852,364.1243872258945,121.54571217825406C364.1243872258945,121.54571217825406,364.1243872258945,121.54571217825406,364.1243872258945,121.54571217825406M362.8799427814501,130.52348995603185C362.0799427814501,129.59015662269852,362.52438722589454,127.2790455115874,362.8354983370056,125.81237884492073C363.14660944811675,125.36793440047629,363.72438722589453,125.45682328936518,363.85772055922786,126.0790455115874C363.81327611478343,127.6790455115874,364.168831670339,129.2790455115874,363.76883167033895,130.70126773380963C363.4132761147834,130.7901566226985,363.4132761147834,130.70126773380963,362.8799427814501,130.52348995603185C362.8799427814501,130.52348995603185,362.8799427814501,130.52348995603185,362.8799427814501,130.52348995603185M370.3021650036723,124.7901566226985C371.94660944811676,125.05682328936518,373.05772055922785,127.19015662269851,373.05772055922785,129.72348995603184C373.05772055922785,131.14571217825406,372.34660944811674,130.83460106714296,371.67994278145005,130.4790455115874C370.8799427814501,129.14571217825406,371.4577205592279,128.4790455115874,370.7021650036723,126.70126773380962C369.05772055922785,126.12348995603185,367.5466094481167,129.14571217825406,366.6132761147834,129.59015662269852C365.72438722589453,129.4568232893652,364.8799427814501,127.85682328936518,365.67994278145005,126.83460106714296C365.76883167033895,126.30126773380962,365.81327611478343,126.16793440047628,366.168831670339,125.50126773380963C366.7021650036723,125.14571217825407,367.05772055922785,125.9901566226985,367.4577205592279,126.03460106714296C367.4577205592279,126.03460106714296,370.3021650036723,124.7901566226985,370.3021650036723,124.7901566226985M376.16883167033893,127.90126773380962C377.63549833700563,129.05682328936518,381.2354983370056,129.54571217825406,383.05772055922785,130.65682328936518C383.4132761147834,130.4790455115874,384.0354983370056,130.56793440047628,383.9021650036723,129.90126773380962C383.9021650036723,129.72348995603184,383.368831670339,129.41237884492074,382.56883167033897,128.83460106714296C380.96883167033894,127.72348995603184,380.16883167033893,127.85682328936518,378.16883167033893,127.36793440047629C378.7910538925612,126.43460106714295,383.4577205592278,126.7901566226985,382.7466094481167,124.56793440047629C382.7466094481167,124.56793440047629,382.0354983370056,124.25682328936517,382.0354983370056,124.25682328936517C382.0354983370056,124.25682328936517,376.56883167033897,126.34571217825406,376.56883167033897,126.34571217825406C376.56883167033897,126.34571217825406,377.67994278145005,122.21237884492074,377.67994278145005,122.21237884492074C377.5466094481167,121.54571217825406,378.39105389256116,120.03460106714296,378.47994278145006,118.61237884492073C378.5243872258945,117.94571217825407,377.5466094481167,117.9901566226985,377.3688316703389,118.4790455115874C375.9910538925612,122.12348995603185,375.1910538925612,125.94571217825407,374.0354983370056,129.90126773380962C374.1243872258945,129.99015662269852,375.01327611478337,131.23460106714296,375.2354983370056,130.34571217825408C375.3243872258945,130.12348995603185,375.4132761147834,129.94571217825407,375.63549833700563,129.85682328936517C375.8132761147834,129.14571217825406,375.8132761147834,129.1901566226985,376.16883167033893,127.90126773380962C376.16883167033893,127.90126773380962,376.16883167033893,127.90126773380962,376.16883167033893,127.90126773380962M390.87994278145004,124.12348995603185C391.7243872258945,124.16793440047628,392.07994278145003,125.19015662269851,391.4577205592278,125.54571217825406C391.2799427814501,125.59015662269852,390.47994278145006,125.72348995603184,389.10216500367227,125.85682328936518C388.39105389256116,126.21237884492074,388.1243872258945,125.76793440047629,387.3688316703389,126.25682328936517C388.39105389256116,127.19015662269851,391.3243872258945,126.9679344004763,391.63549833700563,129.01237884492073C391.05772055922785,130.0790455115874,387.8577205592278,130.56793440047628,386.1243872258945,130.8790455115874C385.7243872258945,130.74571217825405,385.3243872258945,130.74571217825405,384.9243872258945,130.8790455115874C384.6577205592278,130.70126773380963,383.9910538925612,130.1679344004763,384.56883167033897,129.7679344004763C385.9021650036723,129.5012677338096,388.25772055922783,129.1901566226985,389.10216500367227,128.70126773380963C388.34660944811674,127.9901566226985,385.5466094481167,127.23460106714296,384.79105389256114,126.56793440047629C384.6577205592278,126.4790455115874,384.6132761147834,126.25682328936517,384.6132761147834,125.90126773380962C384.34660944811674,125.63460106714295,384.7466094481167,125.32348995603185,385.2799427814501,125.10126773380962C386.25772055922783,124.70126773380962,389.4577205592278,124.0790455115874,390.87994278145004,124.12348995603185C390.87994278145004,124.12348995603185,390.87994278145004,124.12348995603185,390.87994278145004,124.12348995603185"></path><path style="-webkit-tap-highlight-color: rgba(0, 0, 0, 0);" fill="none" stroke="#000000" d="M271.12272944811673,187.09401090811414C140.63107554435678,177.92119601367395,161.8015657240192,195.89059706664955,43.61927012574854,187.4599521395215" stroke-width="2" marker-end="url(#raphael-marker-endblock55)" stroke-dasharray="6,2"></path><rect style="-webkit-tap-highlight-color: rgba(0, 0, 0, 0);" x="81.78596304112995" y="160.16168808456962" width="151.15555555555554" height="21.860138646339323" r="0" rx="0" ry="0" fill="#ffffff" stroke="#000" stroke-width="0"></rect><path style="-webkit-tap-highlight-color: rgba(0, 0, 0, 0);" fill="#000000" stroke="none" d="M84.1415185966855,162.12320825161115C85.65262970779662,162.5676526960556,83.96374081890772,166.7898749182778,83.78596304112995,167.81209714050004C83.78596304112995,167.81209714050004,82.71929637446328,173.41209714050004,82.71929637446328,173.41209714050004C82.6304074855744,173.5009860293889,82.58596304112994,173.4565415849445,82.31929637446328,173.6787638071667C81.78596304112995,173.23431936272226,81.78596304112995,173.01209714050003,81.78596304112995,171.58987491827781C81.78596304112995,167.4565415849445,82.18596304112995,164.65654158494448,83.03040748557439,163.23431936272226C83.47485193001884,162.4787638071667,83.87485193001883,162.12320825161115,84.1415185966855,162.12320825161115C84.1415185966855,162.12320825161115,84.1415185966855,162.12320825161115,84.1415185966855,162.12320825161115M98.31929637446328,171.4565415849445C98.76374081890773,171.63431936272227,100.94151859668551,173.2787638071667,101.20818526335218,173.6787638071667C101.25262970779661,173.98987491827782,100.94151859668551,174.43431936272225,100.67485193001883,174.43431936272225C100.67485193001883,174.43431936272225,98.00818526335217,173.10098602938893,98.00818526335217,173.10098602938893C97.0304074855744,173.1898749182778,96.1415185966855,174.03431936272227,95.11929637446329,173.94543047383337C93.65262970779662,174.12320825161115,92.09707415224106,170.96765269605558,94.45262970779662,170.34543047383337C96.27485193001884,169.14543047383336,98.71929637446328,168.61209714050003,99.3415185966855,170.74543047383338C99.3415185966855,171.01209714050003,99.16374081890773,171.2787638071667,98.85262970779661,171.4565415849445C97.38596304112995,170.34543047383337,95.87485193001883,171.23431936272226,94.94151859668551,171.98987491827782C95.38596304112995,172.70098602938893,97.65262970779662,171.1898749182778,98.31929637446328,171.4565415849445C98.31929637446328,171.4565415849445,98.31929637446328,171.4565415849445,98.31929637446328,171.4565415849445M116.98596304112993,171.32320825161113C116.89707415224105,172.25654158494447,116.98596304112993,173.85654158494447,117.11929637446326,174.5676526960556C116.36374081890771,174.70098602938893,115.78596304112993,174.52320825161115,115.69707415224104,173.85654158494447C115.34151859668549,173.54543047383336,115.47485193001881,171.90098602938892,115.11929637446326,170.74543047383338C113.56374081890772,170.8787638071667,111.47485193001881,172.92320825161116,110.18596304112994,173.85654158494447C109.65262970779659,174.21209714050005,108.40818526335215,174.03431936272227,108.4526297077966,173.1898749182778C108.4526297077966,173.1898749182778,108.54151859668549,170.70098602938893,108.54151859668549,170.70098602938893C108.49707415224104,170.12320825161115,108.71929637446327,169.4565415849445,108.18596304112994,169.41209714050004C106.63040748557438,169.7676526960556,104.67485193001882,172.61209714050003,103.07485193001882,173.2787638071667C102.80818526335216,173.3676526960556,102.18596304112994,172.4787638071667,102.14151859668549,172.30098602938892C102.18596304112994,171.41209714050004,102.7637408189077,167.63431936272227,103.87485193001882,169.4565415849445C103.87485193001882,169.4565415849445,104.23040748557437,170.12320825161115,104.23040748557437,170.12320825161115C104.98596304112993,169.5009860293889,107.43040748557438,167.63431936272227,108.36374081890771,167.72320825161114C109.56374081890772,167.85654158494447,110.54151859668549,169.5009860293889,110.27485193001883,171.2787638071667C111.34151859668549,171.1898749182778,113.20818526335216,168.83431936272225,115.78596304112993,168.92320825161116C116.27485193001883,169.54543047383336,117.03040748557437,169.94543047383337,116.98596304112993,171.32320825161113C116.98596304112993,171.32320825161113,116.98596304112993,171.32320825161113,116.98596304112993,171.32320825161113M131.69707415224107,169.63431936272227C133.0304074855744,170.83431936272225,132.6304074855744,172.96765269605558,133.0304074855744,174.83431936272225C132.49707415224105,176.21209714050005,132.5415185966855,177.7676526960556,131.4304074855744,179.41209714050004C130.00818526335217,181.4565415849445,126.76374081890773,183.10098602938893,124.00818526335217,181.14543047383336C122.6304074855744,180.21209714050005,121.8304074855744,179.85654158494447,121.74151859668551,177.81209714050004C121.65262970779662,176.1676526960556,125.16374081890773,175.58987491827781,127.11929637446329,175.2787638071667C128.76374081890773,175.01209714050003,130.1415185966855,174.83431936272225,131.34151859668552,174.7898749182778C131.65262970779662,174.52320825161115,131.47485193001884,173.3676526960556,131.5192963744633,172.74543047383338C131.5192963744633,172.74543047383338,131.47485193001884,172.7898749182778,131.47485193001884,172.83431936272225C131.47485193001884,172.03431936272227,131.25262970779661,171.4565415849445,130.8526297077966,170.83431936272225C128.89707415224106,171.05654158494448,127.3415185966855,171.72320825161114,126.67485193001885,170.03431936272227C126.80818526335217,167.63431936272227,129.9192963744633,167.63431936272227,132.2304074855744,167.81209714050004C132.76374081890773,168.12320825161115,132.76374081890773,168.38987491827783,132.40818526335218,168.92320825161116C131.07485193001884,168.43431936272225,129.0304074855744,169.2787638071667,128.40818526335218,169.81209714050004C129.4304074855744,169.94543047383337,130.6304074855744,169.10098602938893,131.69707415224107,169.63431936272227C131.69707415224107,169.63431936272227,131.69707415224107,169.63431936272227,131.69707415224107,169.63431936272227M124.31929637446329,179.32320825161113C126.98596304112995,181.6787638071667,131.78596304112995,179.3676526960556,131.38596304112994,175.5009860293889C129.29707415224107,175.1898749182778,127.25262970779661,176.5676526960556,125.07485193001884,176.83431936272225C124.5415185966855,177.14543047383336,123.07485193001884,177.6787638071667,123.20818526335218,178.12320825161115C123.20818526335218,178.5676526960556,123.56374081890773,178.96765269605558,124.31929637446329,179.32320825161113C124.31929637446329,179.32320825161113,124.31929637446329,179.32320825161113,124.31929637446329,179.32320825161113M138.98596304112996,167.7676526960556C141.29707415224107,166.70098602938893,143.60818526335217,168.5676526960556,143.60818526335217,170.5676526960556C143.60818526335217,173.1898749182778,140.67485193001883,173.54543047383336,138.5415185966855,174.25654158494447C136.2304074855744,174.1676526960556,133.4304074855744,172.03431936272227,134.98596304112996,169.58987491827781C136.00818526335217,168.7898749182778,137.29707415224107,168.03431936272227,138.98596304112996,167.7676526960556C138.98596304112996,167.7676526960556,138.98596304112996,167.7676526960556,138.98596304112996,167.7676526960556M136.18596304112995,171.2787638071667C136.89707415224106,173.6787638071667,141.7415185966855,171.98987491827782,142.00818526335217,170.25654158494447C141.47485193001884,167.63431936272227,136.27485193001885,169.90098602938892,136.18596304112995,171.2787638071667C136.18596304112995,171.2787638071667,136.18596304112995,171.2787638071667,136.18596304112995,171.2787638071667M148.63040748557438,167.7676526960556C150.94151859668548,166.70098602938893,153.2526297077966,168.5676526960556,153.2526297077966,170.5676526960556C153.2526297077966,173.1898749182778,150.31929637446325,173.54543047383336,148.18596304112992,174.25654158494447C145.87485193001882,174.1676526960556,143.0748519300188,172.03431936272227,144.63040748557438,169.58987491827781C145.6526297077966,168.7898749182778,146.94151859668548,168.03431936272227,148.63040748557438,167.7676526960556C148.63040748557438,167.7676526960556,148.63040748557438,167.7676526960556,148.63040748557438,167.7676526960556M145.83040748557437,171.2787638071667C146.54151859668548,173.6787638071667,151.3859630411299,171.98987491827782,151.6526297077966,170.25654158494447C151.11929637446326,167.63431936272227,145.91929637446327,169.90098602938892,145.83040748557437,171.2787638071667C145.83040748557437,171.2787638071667,145.83040748557437,171.2787638071667,145.83040748557437,171.2787638071667M163.43040748557436,165.01209714050003C163.43040748557436,163.4565415849445,162.6748519300188,160.0787638071667,164.49707415224103,160.83431936272225C164.80818526335216,164.65654158494448,164.40818526335215,166.12320825161115,164.49707415224103,169.58987491827781C164.31929637446325,169.6787638071667,164.14151859668547,170.52320825161115,163.69707415224104,170.30098602938892C160.94151859668548,169.98987491827782,156.85262970779658,169.94543047383337,155.47485193001881,171.58987491827781C155.7415185966855,172.34543047383337,156.71929637446326,172.74543047383338,157.7415185966855,172.74543047383338C158.4526297077966,172.74543047383338,162.18596304112992,172.0787638071667,163.60818526335214,171.94543047383337C163.91929637446327,172.1676526960556,163.3415185966855,172.83431936272225,163.1637408189077,172.92320825161116C162.09707415224105,173.2787638071667,157.7415185966855,174.7898749182778,155.91929637446327,174.03431936272227C154.49707415224103,173.81209714050004,153.1637408189077,171.6787638071667,154.31929637446325,170.4787638071667C155.87485193001882,168.83431936272225,159.56374081890772,168.43431936272225,163.11929637446326,168.5676526960556C163.1637408189077,167.58987491827781,163.43040748557436,166.38987491827783,163.43040748557436,165.01209714050003C163.43040748557436,165.01209714050003,163.43040748557436,165.01209714050003,163.43040748557436,165.01209714050003M176.98596304112993,167.2787638071667C177.4304074855744,165.4565415849445,178.5415185966855,161.6787638071667,179.87485193001882,161.32320825161113C180.0526297077966,161.3676526960556,180.94151859668548,162.1676526960556,180.36374081890773,162.92320825161116C179.60818526335217,163.90098602938892,179.07485193001884,165.4565415849445,178.7637408189077,167.54543047383336C179.91929637446327,167.90098602938892,180.98596304112993,167.23431936272226,182.00818526335217,167.7676526960556C182.63040748557438,167.7676526960556,182.98596304112993,167.90098602938892,182.98596304112993,168.1676526960556C182.9415185966855,169.01209714050003,181.0304074855744,168.96765269605558,180.4526297077966,169.1898749182778C180.00818526335217,169.23431936272226,178.40818526335215,169.1898749182778,178.0526297077966,169.63431936272227C177.60818526335217,170.70098602938893,177.87485193001882,172.61209714050003,177.1637408189077,173.98987491827782C176.23040748557437,173.85654158494447,176.00818526335217,174.03431936272227,176.00818526335217,173.10098602938893C176.00818526335217,172.70098602938893,176.09707415224105,171.5009860293889,176.36374081890773,169.5009860293889C175.69707415224104,168.92320825161116,172.7637408189077,169.90098602938892,172.94151859668548,168.30098602938892C173.11929637446326,166.61209714050003,176.09707415224105,168.5676526960556,176.98596304112993,167.2787638071667C176.98596304112993,167.2787638071667,176.98596304112993,167.2787638071667,176.98596304112993,167.2787638071667M186.27485193001883,160.1676526960556C186.7637408189077,160.0787638071667,186.71929637446326,161.01209714050003,186.7637408189077,161.05654158494448C186.27485193001883,163.3676526960556,184.98596304112993,166.96765269605558,184.40818526335215,169.4565415849445C184.14151859668547,170.7898749182778,184.00818526335215,171.10098602938893,184.00818526335215,171.54543047383336C185.20818526335214,171.54543047383336,189.03040748557436,170.03431936272227,190.3637408189077,170.03431936272227C192.23040748557437,170.03431936272227,191.74151859668547,172.12320825161115,192.09707415224105,173.54543047383336C192.09707415224105,173.72320825161114,191.87485193001882,174.30098602938892,191.3859630411299,174.25654158494447C191.56374081890772,174.34543047383337,191.87485193001882,174.38987491827783,191.56374081890772,174.52320825161115C190.49707415224103,174.4787638071667,190.31929637446325,173.01209714050003,190.4526297077966,171.6787638071667C190.40818526335215,171.63431936272227,190.3637408189077,171.54543047383336,190.23040748557437,171.4565415849445C187.9637408189077,171.4565415849445,185.3415185966855,173.14543047383336,183.03040748557436,173.72320825161114C182.63040748557438,173.7676526960556,182.3637408189077,173.05654158494448,182.31929637446325,172.70098602938893C183.0748519300188,168.74543047383338,184.0526297077966,166.43431936272225,185.47485193001881,160.96765269605558C185.47485193001881,160.5676526960556,185.74151859668547,160.12320825161115,186.27485193001883,160.1676526960556C186.27485193001883,160.1676526960556,186.27485193001883,160.1676526960556,186.27485193001883,160.1676526960556M198.49707415224105,171.4565415849445C198.94151859668548,171.63431936272227,201.11929637446326,173.2787638071667,201.38596304112994,173.6787638071667C201.4304074855744,173.98987491827782,201.11929637446326,174.43431936272225,200.8526297077966,174.43431936272225C200.8526297077966,174.43431936272225,198.18596304112992,173.10098602938893,198.18596304112992,173.10098602938893C197.20818526335216,173.1898749182778,196.31929637446328,174.03431936272227,195.29707415224104,173.94543047383337C193.83040748557437,174.12320825161115,192.27485193001883,170.96765269605558,194.63040748557438,170.34543047383337C196.4526297077966,169.14543047383336,198.89707415224103,168.61209714050003,199.51929637446327,170.74543047383338C199.51929637446327,171.01209714050003,199.3415185966855,171.2787638071667,199.0304074855744,171.4565415849445C197.56374081890772,170.34543047383337,196.0526297077966,171.23431936272226,195.11929637446326,171.98987491827782C195.56374081890772,172.70098602938893,197.83040748557437,171.1898749182778,198.49707415224105,171.4565415849445C198.49707415224105,171.4565415849445,198.49707415224105,171.4565415849445,198.49707415224105,171.4565415849445M207.0748519300188,167.90098602938892C208.71929637446326,168.1676526960556,209.83040748557437,170.30098602938892,209.83040748557437,172.83431936272225C209.83040748557437,174.25654158494447,209.11929637446326,173.94543047383337,208.4526297077966,173.58987491827781C207.6526297077966,172.25654158494447,208.23040748557437,171.58987491827781,207.47485193001881,169.81209714050004C205.83040748557437,169.23431936272226,204.31929637446328,172.25654158494447,203.38596304112994,172.70098602938893C202.49707415224105,172.5676526960556,201.6526297077966,170.96765269605558,202.4526297077966,169.94543047383337C202.54151859668548,169.41209714050004,202.58596304112993,169.2787638071667,202.94151859668548,168.61209714050003C203.47485193001881,168.25654158494447,203.83040748557437,169.10098602938893,204.23040748557437,169.14543047383336C204.23040748557437,169.14543047383336,207.0748519300188,167.90098602938892,207.0748519300188,167.90098602938892M212.9415185966855,171.01209714050003C214.40818526335218,172.1676526960556,218.00818526335217,172.65654158494448,219.8304074855744,173.7676526960556C220.18596304112995,173.58987491827781,220.80818526335216,173.6787638071667,220.67485193001883,173.01209714050003C220.67485193001883,172.83431936272225,220.1415185966855,172.52320825161115,219.3415185966855,171.94543047383337C217.7415185966855,170.83431936272225,216.9415185966855,170.96765269605558,214.9415185966855,170.4787638071667C215.56374081890772,169.54543047383336,220.2304074855744,169.90098602938892,219.51929637446327,167.6787638071667C219.51929637446327,167.6787638071667,218.80818526335216,167.3676526960556,218.80818526335216,167.3676526960556C218.80818526335216,167.3676526960556,213.3415185966855,169.4565415849445,213.3415185966855,169.4565415849445C213.3415185966855,169.4565415849445,214.4526297077966,165.32320825161113,214.4526297077966,165.32320825161113C214.31929637446328,164.65654158494448,215.1637408189077,163.14543047383336,215.25262970779661,161.72320825161114C215.29707415224107,161.05654158494448,214.31929637446328,161.10098602938893,214.1415185966855,161.58987491827781C212.76374081890773,165.23431936272226,211.96374081890772,169.05654158494448,210.80818526335216,173.01209714050003C210.89707415224106,173.10098602938893,211.78596304112995,174.34543047383337,212.00818526335217,173.4565415849445C212.09707415224105,173.23431936272226,212.18596304112995,173.05654158494448,212.40818526335218,172.96765269605558C212.58596304112996,172.25654158494447,212.58596304112996,172.30098602938892,212.9415185966855,171.01209714050003C212.9415185966855,171.01209714050003,212.9415185966855,171.01209714050003,212.9415185966855,171.01209714050003M227.6526297077966,167.23431936272226C228.49707415224105,167.2787638071667,228.8526297077966,168.30098602938892,228.23040748557437,168.65654158494448C228.0526297077966,168.70098602938893,227.25262970779661,168.83431936272225,225.87485193001882,168.96765269605558C225.1637408189077,169.32320825161113,224.89707415224106,168.8787638071667,224.1415185966855,169.3676526960556C225.1637408189077,170.30098602938892,228.09707415224105,170.0787638071667,228.40818526335215,172.12320825161115C227.83040748557437,173.1898749182778,224.63040748557438,173.6787638071667,222.89707415224106,173.98987491827782C222.49707415224105,173.85654158494447,222.09707415224105,173.85654158494447,221.69707415224104,173.98987491827782C221.4304074855744,173.81209714050004,220.7637408189077,173.2787638071667,221.3415185966855,172.8787638071667C222.67485193001883,172.61209714050003,225.0304074855744,172.30098602938892,225.87485193001882,171.81209714050004C225.11929637446326,171.10098602938893,222.31929637446328,170.34543047383337,221.56374081890772,169.6787638071667C221.4304074855744,169.58987491827781,221.38596304112994,169.3676526960556,221.38596304112994,169.01209714050003C221.11929637446326,168.74543047383338,221.51929637446327,168.43431936272225,222.0526297077966,168.21209714050005C223.0304074855744,167.81209714050004,226.23040748557437,167.1898749182778,227.6526297077966,167.23431936272226C227.6526297077966,167.23431936272226,227.6526297077966,167.23431936272226,227.6526297077966,167.23431936272226M232.09707415224105,160.34543047383337C232.49707415224105,160.4787638071667,232.89707415224103,160.83431936272225,232.94151859668548,161.41209714050004C232.1415185966855,164.65654158494448,232.0526297077966,166.34543047383337,231.29707415224104,170.03431936272227C231.29707415224104,170.4787638071667,231.38596304112994,171.54543047383336,230.7637408189077,171.54543047383336C230.23040748557437,171.54543047383336,229.96374081890772,171.14543047383336,229.96374081890772,170.30098602938892C229.96374081890772,166.52320825161115,230.98596304112993,164.25654158494447,231.6526297077966,160.7898749182778C231.69707415224104,160.4787638071667,231.83040748557437,160.34543047383337,232.09707415224105,160.34543047383337C232.09707415224105,160.34543047383337,232.09707415224105,160.34543047383337,232.09707415224105,160.34543047383337M230.27485193001883,172.61209714050003C230.94151859668548,172.5676526960556,231.51929637446327,174.12320825161115,230.49707415224105,174.1676526960556C230.00818526335215,174.12320825161115,228.80818526335216,172.5676526960556,230.27485193001883,172.61209714050003C230.27485193001883,172.61209714050003,230.27485193001883,172.61209714050003,230.27485193001883,172.61209714050003"></path></svg>